<svg width="14" height="12" viewBox="0 0 14 12" fill="#000" xmlns="http://www.w3.org/2000/svg">
<path d="M13.2459 6.53171C13.3 6.47741 13.3428 6.41299 13.3719 6.34213C13.4016 6.27158 13.4168 6.19582 13.4168 6.1193C13.4168 6.04277 13.4016 5.96701 13.3719 5.89646C13.3428 5.82561 13.3 5.76119 13.2459 5.70688L8.57925 1.04021C8.46923 0.933954 8.32188 0.875158 8.16893 0.876487C8.01598 0.877816 7.86967 0.939165 7.76152 1.04732C7.65336 1.15547 7.59202 1.30178 7.59069 1.45473C7.58936 1.60768 7.64815 1.75503 7.75441 1.86505L11.4253 5.53596H1.16683C1.01212 5.53596 0.863747 5.59742 0.75435 5.70682C0.644954 5.81621 0.583496 5.96459 0.583496 6.1193C0.583496 6.27401 0.644954 6.42238 0.75435 6.53178C0.863747 6.64117 1.01212 6.70263 1.16683 6.70263H11.4253L7.75441 10.3735C7.64815 10.4836 7.58936 10.6309 7.59069 10.7839C7.59202 10.9368 7.65336 11.0831 7.76152 11.1913C7.86967 11.2994 8.01598 11.3608 8.16893 11.3621C8.32188 11.3634 8.46923 11.3046 8.57925 11.1984L13.2459 6.53171Z" fill="white"/>
</svg>
