<svg width="25" height="24" viewBox="0 0 25 24" fill="none" xmlns="http://www.w3.org/2000/svg">
<path d="M8.73533 22.2649C9.49191 22.2649 9.70572 21.9807 9.70572 21.6176C9.70572 21.2544 9.70572 20.4649 9.68928 19.3439C5.75835 20.1491 4.91954 17.5439 4.91954 17.5439C4.27809 16.0123 3.34059 15.586 3.34059 15.586C2.0577 14.7649 3.43928 14.7807 3.43928 14.7807C4.85375 14.8754 5.61033 16.1544 5.61033 16.1544C6.87678 18.207 8.91625 17.607 9.72217 17.2597C9.78796 16.5807 10.1005 15.9333 10.6268 15.4597C7.48533 15.1281 4.17941 13.9754 4.17941 8.85966C4.16296 7.53334 4.68928 6.23861 5.64322 5.27545C5.47875 4.94387 5.00178 3.58598 5.75835 1.73861C5.75835 1.73861 6.94257 1.37545 9.65638 3.11229C11.9755 2.51229 14.4097 2.51229 16.7288 3.11229C19.4097 1.39124 20.6103 1.73861 20.6103 1.73861C21.3669 3.57019 20.8899 4.92808 20.7584 5.27545C21.7123 6.23861 22.2222 7.53334 22.2057 8.85966C22.2057 13.9912 18.8998 15.1123 15.7419 15.4439C16.2353 15.8386 16.6959 16.6597 16.6959 17.907C16.6959 19.707 16.6794 21.1281 16.6794 21.5544C16.6794 21.9018 16.8439 22.186 17.6498 22.186L8.73533 22.2649Z" fill="#263238"/>
</svg>
