<svg width="22" height="22" viewBox="0 0 22 22" fill="none" xmlns="http://www.w3.org/2000/svg">
<g clip-path="url(#clip0_630_63135)">
<path d="M21.1696 9.08637L12.196 9.08594C11.7997 9.08594 11.4785 9.40709 11.4785 9.80334V12.67C11.4785 13.0662 11.7997 13.3874 12.1959 13.3874H17.2493C16.696 14.8235 15.6632 16.0261 14.3455 16.7903L16.5002 20.5204C19.9567 18.5213 22.0002 15.0138 22.0002 11.0874C22.0002 10.5284 21.959 10.1287 21.8766 9.67869C21.814 9.33679 21.5171 9.08637 21.1696 9.08637Z" fill="#167EE6"/>
<path d="M10.9999 17.6944C8.52689 17.6944 6.36797 16.3432 5.20846 14.3438L1.47852 16.4936C3.37666 19.7834 6.9325 21.9988 10.9999 21.9988C12.9953 21.9988 14.878 21.4615 16.4999 20.5253V20.5202L14.3452 16.79C13.3595 17.3617 12.219 17.6944 10.9999 17.6944Z" fill="#12B347"/>
<path d="M16.5 20.5282V20.5231L14.3452 16.793C13.3596 17.3646 12.2192 17.6973 11 17.6973V22.0017C12.9953 22.0017 14.8782 21.4644 16.5 20.5282Z" fill="#0F993E"/>
<path d="M4.30435 10.9988C4.30435 9.77981 4.63702 8.63938 5.20854 7.6538L1.4786 5.50391C0.537195 7.12069 0 8.99834 0 10.9988C0 12.9992 0.537195 14.8769 1.4786 16.4937L5.20854 14.3438C4.63702 13.3582 4.30435 12.2178 4.30435 10.9988Z" fill="#FFD500"/>
<path d="M10.9999 4.30435C12.6126 4.30435 14.0939 4.87738 15.2509 5.83056C15.5363 6.06568 15.9512 6.04871 16.2127 5.78725L18.2438 3.75611C18.5405 3.45946 18.5193 2.97387 18.2024 2.69895C16.2639 1.0172 13.7416 0 10.9999 0C6.9325 0 3.37666 2.21534 1.47852 5.50511L5.20846 7.65501C6.36797 5.65555 8.52689 4.30435 10.9999 4.30435Z" fill="#FF4B26"/>
<path d="M15.251 5.83056C15.5364 6.06568 15.9513 6.04871 16.2128 5.78725L18.2439 3.75611C18.5405 3.45946 18.5194 2.97387 18.2025 2.69895C16.264 1.01716 13.7417 0 11 0V4.30435C12.6126 4.30435 14.094 4.87738 15.251 5.83056Z" fill="#D93F21"/>
</g>
<defs>
<clipPath id="clip0_630_63135">
<rect width="22" height="22" fill="white"/>
</clipPath>
</defs>
</svg>
