<svg width="115" height="47" viewBox="0 0 115 47" fill="none" xmlns="http://www.w3.org/2000/svg">
<g clip-path="url(#clip0_133_28520)">
<path d="M46.1957 46.5089H0.104831L0 0.172363H27.9201V4.53715H4.40292L4.4728 42.1441H41.8277V34.3923H46.1957V46.5089Z" fill="#EC6E3C"/>
<path d="M46.3706 12.2187H41.8279V4.53669H33.4414V-0.00268555H46.3706V12.2187Z" fill="#F7C5B1"/>
<path d="M14.0481 19.204V21.1595C14.0481 21.1944 14.0481 21.2293 14.083 21.2642C14.1179 21.2991 14.1529 21.2991 14.1529 21.2991H14.3276V21.8578H13.9782C13.8034 21.8578 13.6637 21.788 13.5239 21.6483C13.3142 21.8229 13.1046 21.8927 12.825 21.8927C12.5455 21.8927 12.3009 21.788 12.0912 21.6134C11.8116 21.369 11.6719 21.0198 11.6719 20.5659C11.6719 20.1818 11.8116 19.8326 12.0563 19.5881C12.3009 19.3437 12.5804 19.239 12.8949 19.239C13.0696 19.239 13.2793 19.2739 13.454 19.3437L13.6986 19.1691C13.7336 19.204 14.0481 19.204 14.0481 19.204ZM13.3841 19.9024C13.2443 19.8675 13.1395 19.8326 13.0347 19.8326C12.825 19.8326 12.6852 19.9024 12.5455 20.0421C12.4057 20.1818 12.3708 20.3563 12.3708 20.6008C12.3708 20.8452 12.4406 21.0198 12.5455 21.1595C12.6503 21.2991 12.825 21.369 12.9997 21.369C13.1395 21.369 13.2793 21.3341 13.4191 21.2991V19.9024H13.3841ZM12.86 18.1565C12.9648 18.1565 13.0347 18.1914 13.1046 18.2612C13.1745 18.3311 13.2094 18.4009 13.2094 18.5057C13.2094 18.6104 13.1745 18.6803 13.1046 18.7501C13.0347 18.8199 12.9648 18.8549 12.86 18.8549C12.7551 18.8549 12.6852 18.8199 12.6154 18.7501C12.5455 18.6803 12.5105 18.6104 12.5105 18.5057C12.5105 18.4009 12.5455 18.3311 12.6154 18.2612C12.6852 18.1914 12.7901 18.1565 12.86 18.1565ZM13.6986 18.1565C13.8034 18.1565 13.8733 18.1914 13.9432 18.2612C14.0131 18.3311 14.0481 18.4009 14.0481 18.5057C14.0481 18.6104 14.0131 18.6803 13.9432 18.7501C13.8733 18.8199 13.8034 18.8549 13.6986 18.8549C13.5938 18.8549 13.5239 18.8199 13.454 18.7501C13.3841 18.6803 13.3492 18.6104 13.3492 18.5057C13.3492 18.4009 13.3841 18.3311 13.454 18.2612C13.5239 18.1914 13.5938 18.1565 13.6986 18.1565Z" fill="white"/>
<path d="M15.9004 19.3442V21.2997H16.1799V21.8584H16.0052L15.7956 21.6488C15.6907 21.7885 15.516 21.8584 15.3413 21.8584H14.293V21.2997H15.0967C15.1666 21.2997 15.1666 21.2997 15.2015 21.2647C15.2365 21.2298 15.2364 21.1949 15.2364 21.16V19.3792L15.9004 19.3442ZM14.7472 22.2425C14.8521 22.2425 14.922 22.2774 14.9918 22.3472C15.0617 22.417 15.0967 22.4869 15.0967 22.5916C15.0967 22.6964 15.0617 22.7662 14.9918 22.8361C14.922 22.9059 14.8521 22.9408 14.7472 22.9408C14.6424 22.9408 14.5725 22.9059 14.5026 22.8361C14.4327 22.7662 14.3978 22.6964 14.3978 22.5916C14.3978 22.4869 14.4327 22.417 14.5026 22.3472C14.5725 22.2774 14.6424 22.2425 14.7472 22.2425ZM15.5509 22.2425C15.6558 22.2425 15.7257 22.2774 15.7956 22.3472C15.8654 22.417 15.9004 22.4869 15.9004 22.5916C15.9004 22.6964 15.8654 22.7662 15.7956 22.8361C15.7257 22.9059 15.6558 22.9408 15.5509 22.9408C15.4461 22.9408 15.3762 22.9059 15.3063 22.8361C15.2365 22.7662 15.2015 22.6964 15.2015 22.5916C15.2015 22.4869 15.2365 22.417 15.3063 22.3472C15.3762 22.2774 15.4811 22.2425 15.5509 22.2425Z" fill="white"/>
<path d="M17.2276 21.2991C17.1577 21.1944 17.0878 21.0547 17.0179 20.915C16.983 20.7754 16.948 20.6357 16.948 20.496C16.948 20.1818 17.0529 19.9024 17.2276 19.6929C17.4722 19.4136 17.7867 19.2739 18.206 19.2739C18.5205 19.2739 18.7651 19.3437 18.9748 19.5183C19.1844 19.6929 19.3242 19.9722 19.3242 20.2865V21.2642C19.3242 21.4039 19.2893 21.5436 19.1844 21.6483C19.0796 21.788 18.9049 21.8578 18.7302 21.8578H16.1094V21.2991C16.1443 21.2991 17.2276 21.2991 17.2276 21.2991ZM18.6952 20.2865C18.6952 20.1468 18.6253 20.0072 18.5554 19.9373C18.4856 19.8675 18.3807 19.8326 18.2759 19.8326C18.0313 19.8326 17.8566 19.9373 17.7517 20.1119C17.6818 20.2167 17.6469 20.3913 17.6469 20.5659C17.6469 20.8103 17.7168 20.9849 17.8915 21.1245C17.9963 21.2293 18.1711 21.2991 18.3807 21.2991H18.5904C18.6952 21.2991 18.7302 21.2642 18.7302 21.1595L18.6952 20.2865ZM18.2409 18.1565C18.3458 18.1565 18.4157 18.1914 18.4856 18.2612C18.5554 18.3311 18.5904 18.4009 18.5904 18.5057C18.5904 18.6104 18.5554 18.6803 18.4856 18.7501C18.4157 18.8199 18.3458 18.8549 18.2409 18.8549C18.1361 18.8549 18.0662 18.8199 17.9963 18.7501C17.9265 18.6803 17.8915 18.6104 17.8915 18.5057C17.8915 18.4009 17.9265 18.3311 17.9963 18.2612C18.0662 18.1914 18.1711 18.1565 18.2409 18.1565Z" fill="white"/>
<path d="M20.6874 17.9458V21.6821L20.3379 21.9614H20.0234V17.9458H20.6874Z" fill="white"/>
<path d="M22.576 19.3442V21.2997H22.8555V21.8584H22.576C22.541 22.2774 22.3663 22.6266 22.0518 22.871C21.7723 23.0805 21.4578 23.1503 21.0734 23.1503C21.0035 23.1503 20.9336 23.1503 20.8637 23.1503L20.6191 22.8011V22.5567C20.724 22.5916 20.8637 22.5916 20.9686 22.5916C21.5976 22.5916 21.9121 22.2774 21.9121 21.6488V19.3442H22.576Z" fill="white"/>
<path d="M23.5539 20.2865C23.6588 19.9373 23.9034 19.658 24.2179 19.4834C24.4625 19.3437 24.7071 19.2739 24.9866 19.2739C25.2662 19.2739 25.5457 19.3437 25.7554 19.5183C26.0349 19.6929 26.2446 19.9722 26.3844 20.2865L26.3145 20.4262C26.1747 20.496 26.0349 20.6008 25.8602 20.7754C25.7204 20.95 25.6156 21.1245 25.5807 21.2642H26.4543V21.8229H25.2662C25.1613 21.8229 25.0565 21.788 24.9866 21.6832H24.9517C24.8818 21.788 24.777 21.8229 24.6721 21.8229H22.7852V21.2991H24.3576C24.3227 21.1595 24.2179 20.9849 24.0781 20.8452C23.9383 20.6706 23.7636 20.5659 23.5889 20.496L23.5539 20.2865ZM25.7204 20.2516C25.6505 20.1119 25.5108 19.9722 25.371 19.9024C25.2662 19.8326 25.1264 19.8326 24.9866 19.8326C24.8468 19.8326 24.7071 19.8675 24.5673 19.9373C24.4275 20.0072 24.3227 20.1119 24.2179 20.2516C24.3227 20.3214 24.4625 20.4262 24.6022 20.5659C24.742 20.7404 24.8818 20.915 24.9517 21.1245H24.9866C25.0565 20.915 25.1613 20.7404 25.3361 20.5309C25.5108 20.3913 25.6156 20.3214 25.7204 20.2516ZM24.9866 18.1565C25.0914 18.1565 25.1613 18.1914 25.2312 18.2612C25.3011 18.3311 25.3361 18.4009 25.3361 18.5057C25.3361 18.6104 25.3011 18.6803 25.2312 18.7501C25.1613 18.8199 25.0914 18.8549 24.9866 18.8549C24.8818 18.8549 24.8119 18.8199 24.742 18.7501C24.6721 18.6803 24.6372 18.6104 24.6372 18.5057C24.6372 18.4009 24.6721 18.3311 24.742 18.2612C24.8119 18.1914 24.9167 18.1565 24.9866 18.1565Z" fill="white"/>
<path d="M27.4313 21.2983V21.857H26.418V21.2983H27.4313Z" fill="white"/>
<path d="M28.4099 21.2983V21.857H27.3965V21.2983H28.4099Z" fill="white"/>
<path d="M29.3884 21.2983V21.857H28.375V21.2983H29.3884Z" fill="white"/>
<path d="M30.3319 21.2983V21.857H29.3535V21.2983H30.3319Z" fill="white"/>
<path d="M31.3102 21.2983V21.857H30.2969V21.2983H31.3102Z" fill="white"/>
<path d="M32.2888 21.2983V21.857H31.2754V21.2983H32.2888Z" fill="white"/>
<path d="M33.2321 21.2983V21.857H32.2188V21.2983H33.2321Z" fill="white"/>
<path d="M34.2106 21.2983V21.857H33.1973V21.2983H34.2106Z" fill="white"/>
<path d="M35.154 21.2983V21.857H34.1406V21.2983H35.154Z" fill="white"/>
<path d="M36.1325 21.2983V21.857H35.1191V21.2983H36.1325Z" fill="white"/>
<path d="M36.7965 19.4478C37.146 19.343 37.4605 19.2732 37.74 19.2732C38.1593 19.2732 38.5437 19.4129 38.7883 19.6922C39.0329 19.9366 39.1378 20.2509 39.1378 20.635V21.2985H39.3125V21.8571H39.2077L39.0329 21.6476C38.9281 21.7873 38.7534 21.8571 38.5787 21.8571H36.0977V21.2985H38.369C38.4738 21.2985 38.5088 21.2635 38.5088 21.1588V20.6699C38.5088 20.4255 38.4389 20.216 38.2642 20.0763C38.0895 19.9366 37.8798 19.8668 37.6352 19.8668C37.4605 19.8668 37.1809 19.9017 36.8315 19.9716L36.7965 19.4478ZM37.5653 22.2412C37.6701 22.2412 37.74 22.2762 37.8099 22.346C37.8798 22.4158 37.9147 22.4857 37.9147 22.5904C37.9147 22.6952 37.8798 22.765 37.8099 22.8349C37.74 22.9047 37.6701 22.9396 37.5653 22.9396C37.4605 22.9396 37.3906 22.9047 37.3207 22.8349C37.2508 22.765 37.2159 22.6952 37.2159 22.5904C37.2159 22.4857 37.2508 22.4158 37.3207 22.346C37.3906 22.2762 37.4605 22.2412 37.5653 22.2412Z" fill="white"/>
<path d="M40.9549 17.9458V21.2281C40.9549 21.3678 40.9199 21.5075 40.8151 21.6122C40.7103 21.7519 40.5705 21.8217 40.3608 21.8217H39.3125V21.298H40.1512C40.1861 21.298 40.221 21.298 40.256 21.263C40.2909 21.2281 40.2909 21.1932 40.2909 21.1583V17.9807L40.9549 17.9458Z" fill="white"/>
<path d="M42.3514 17.9458V21.6821L42.002 21.9614H41.6875V17.9458H42.3514Z" fill="white"/>
<path d="M48.6772 19.3443V21.2298C48.6772 21.3695 48.6423 21.5092 48.5375 21.6139C48.4326 21.7536 48.2579 21.8235 48.0832 21.8235H45.0431C44.7985 21.8235 44.6238 21.7536 44.449 21.579C44.2394 21.4044 44.0996 21.1251 44.0996 20.8457V19.9728L44.449 19.6934H44.7635V20.8108C44.7635 20.9505 44.7985 21.0553 44.9033 21.1251C44.9732 21.1949 45.078 21.2298 45.1829 21.2298H47.8735C47.9784 21.2298 48.0133 21.1949 48.0133 21.0902V19.2744H48.6772V19.3443ZM45.9866 19.2046C46.0914 19.2046 46.1613 19.2395 46.2312 19.3093C46.3011 19.3792 46.336 19.449 46.336 19.5538C46.336 19.6585 46.3011 19.7284 46.2312 19.7982C46.1613 19.868 46.0914 19.903 45.9866 19.903C45.8817 19.903 45.8119 19.868 45.742 19.7982C45.6721 19.7284 45.6371 19.6585 45.6371 19.5538C45.6371 19.449 45.6721 19.3792 45.742 19.3093C45.8119 19.2395 45.8817 19.2046 45.9866 19.2046ZM46.7903 19.2046C46.8951 19.2046 46.965 19.2395 47.0349 19.3093C47.1048 19.3792 47.1397 19.449 47.1397 19.5538C47.1397 19.6585 47.1048 19.7284 47.0349 19.7982C46.965 19.868 46.8951 19.903 46.7903 19.903C46.6854 19.903 46.6156 19.868 46.5457 19.7982C46.4758 19.7284 46.4408 19.6585 46.4408 19.5538C46.4408 19.449 46.4758 19.3792 46.5457 19.3093C46.6156 19.2395 46.7204 19.2046 46.7903 19.2046Z" fill="white"/>
<path d="M50.076 17.947V21.1246C50.076 21.1595 50.076 21.1944 50.111 21.1944C50.1459 21.2293 50.1809 21.2293 50.2158 21.2293H50.3556V21.788H50.0062C49.8664 21.788 49.7266 21.7182 49.6218 21.6135C49.482 21.5087 49.4121 21.3341 49.4121 21.1595V17.8772H50.076V17.947Z" fill="white"/>
<path d="M51.2987 20.2863C51.2987 19.9371 51.4036 19.6927 51.6482 19.5181C51.8229 19.3784 52.1024 19.3086 52.4169 19.3086C52.7314 19.3086 53.011 19.4133 53.2206 19.5879C53.5002 19.8324 53.64 20.1816 53.64 20.6006C53.64 21.0196 53.5351 21.3688 53.3255 21.6132C53.1158 21.8925 52.8363 21.9973 52.4868 21.9973C52.1723 21.9973 51.9627 21.8925 51.788 21.6481C51.6831 21.7529 51.5433 21.8227 51.3686 21.8227H50.3203V21.2989H51.159C51.1939 21.2989 51.2288 21.2989 51.2638 21.264C51.2987 21.2291 51.2987 21.1942 51.2987 21.1593V20.2863ZM51.9627 21.2291C52.1024 21.3688 52.2422 21.4386 52.4169 21.4386C52.5917 21.4386 52.7314 21.3688 52.8363 21.2291C52.9411 21.0894 53.011 20.8799 53.011 20.6355C53.011 20.3561 52.9411 20.1815 52.8363 20.007C52.7314 19.8673 52.5917 19.8324 52.4169 19.8324C52.2772 19.8324 52.1723 19.8673 52.1024 19.972C52.0326 20.0419 51.9627 20.1466 51.9627 20.2863V21.2291Z" fill="white"/>
<path d="M55.4203 21.8239C55.0359 21.8239 54.7214 21.6843 54.4768 21.4049C54.2671 21.1605 54.1973 20.8811 54.1973 20.532C54.1973 20.1129 54.3021 19.7987 54.5467 19.5892C54.7913 19.3447 55.1058 19.24 55.4552 19.24C55.7348 19.24 55.9445 19.3098 56.1541 19.4495C56.3987 19.6241 56.5385 19.9034 56.5385 20.2526V21.3002H56.7132V21.8589H56.5385C56.5036 22.243 56.3638 22.5572 56.1192 22.7667C55.9445 22.9064 55.7348 23.0461 55.4902 23.081C55.3155 23.1159 55.1407 23.1508 55.001 23.1508C54.9311 23.1508 54.8612 23.1508 54.7564 23.1508H54.7214L54.4419 22.8017V22.5572C54.5816 22.5921 54.7214 22.5921 54.8612 22.5921C55.4552 22.5921 55.7697 22.3477 55.8396 21.8589L55.4203 21.8239ZM55.8746 20.2875C55.8746 20.1479 55.8396 20.0431 55.7348 19.9384C55.6649 19.8685 55.5601 19.8336 55.4552 19.8336C55.2805 19.8336 55.1407 19.9034 55.001 20.0431C54.8612 20.1828 54.8262 20.3574 54.8262 20.5669C54.8262 20.7764 54.8961 20.951 55.001 21.0907C55.1058 21.2303 55.2805 21.3002 55.4902 21.3002H55.8746V20.2875Z" fill="white"/>
<path d="M58.3223 17.9458V21.298H58.6018V21.8566H58.4271L58.2174 21.6471C58.0777 21.7868 57.9379 21.8566 57.7632 21.8566H56.7148V21.298H57.5535C57.5884 21.298 57.6234 21.298 57.6583 21.263C57.6933 21.2281 57.6933 21.1932 57.6933 21.1583V17.9807L58.3223 17.9458Z" fill="white"/>
<path d="M59.5446 21.2983V21.857H58.5312V21.2983H59.5446Z" fill="white"/>
<path d="M60.5231 21.2983V21.857H59.5098V21.2983H60.5231Z" fill="white"/>
<path d="M61.5016 21.2983V21.857H60.4883V21.2983H61.5016Z" fill="white"/>
<path d="M62.445 21.2983V21.857H61.4316V21.2983H62.445Z" fill="white"/>
<path d="M63.1787 20.2858C63.3185 19.9366 63.5281 19.6573 63.8426 19.4827C64.0872 19.343 64.3318 19.2732 64.6114 19.2732C64.891 19.2732 65.1705 19.343 65.3802 19.5176C65.6597 19.6922 65.8694 19.9716 66.0092 20.2858L65.9393 20.4255C65.7995 20.4953 65.6248 20.6001 65.485 20.7747C65.3452 20.9493 65.2404 21.1239 65.1705 21.2635H66.0441V21.8222H64.856C64.7512 21.8222 64.6463 21.7873 64.5765 21.6826H64.5415C64.4716 21.7873 64.3668 21.8222 64.262 21.8222H62.375V21.2985H63.9475C63.9125 21.1588 63.8077 20.9842 63.6679 20.8445C63.5281 20.6699 63.3534 20.5652 63.1787 20.4953V20.2858ZM65.3452 20.2509C65.2753 20.1112 65.1356 19.9716 64.9958 19.9017C64.891 19.8319 64.7512 19.8319 64.6114 19.8319C64.4716 19.8319 64.3319 19.8668 64.1921 19.9366C64.0523 20.0065 63.9475 20.1112 63.8426 20.2509C63.9824 20.3207 64.0872 20.4255 64.227 20.5652C64.3668 20.7398 64.5066 20.9144 64.5765 21.1239H64.6114C64.6813 20.9144 64.7861 20.7398 64.9608 20.5302C65.1006 20.3906 65.2404 20.3207 65.3452 20.2509Z" fill="white"/>
<path d="M67.0236 21.2989C66.9537 21.0894 66.8838 20.845 66.8838 20.6006C66.8838 20.1816 67.0236 19.8324 67.2682 19.6229C67.4778 19.4133 67.7574 19.3086 68.1068 19.3086C68.4213 19.3086 68.6659 19.3784 68.8756 19.5181C69.1202 19.6927 69.225 19.972 69.225 20.2863V21.1593C69.225 21.1942 69.225 21.2291 69.26 21.264C69.2949 21.2989 69.3298 21.2989 69.3648 21.2989H69.3997V21.8576H69.1901C69.0154 21.8576 68.8756 21.7878 68.7707 21.683C68.596 21.8925 68.3514 22.0322 68.0719 22.0322C67.7574 22.0322 67.4778 21.9275 67.2682 21.683L67.1284 21.8576H66.0801V21.2989H67.0236ZM68.5611 20.2863C68.5611 20.1466 68.5261 20.0419 68.4213 19.972C68.3514 19.9022 68.2466 19.8324 68.1068 19.8324C67.9321 19.8324 67.7923 19.9022 67.6875 20.0419C67.5827 20.1816 67.5128 20.3561 67.5128 20.6006C67.5128 20.845 67.5827 21.0545 67.6875 21.2291C67.7923 21.4037 67.9321 21.4735 68.1068 21.4735C68.2466 21.4735 68.4213 21.4037 68.5611 21.264V20.2863Z" fill="white"/>
<path d="M71.0058 17.9458V21.298H71.2854V21.8566H71.1107L70.901 21.6471C70.7612 21.7868 70.6215 21.8566 70.4468 21.8566H69.3984V21.298H70.2371C70.272 21.298 70.307 21.298 70.3419 21.263C70.3769 21.2281 70.3769 21.1932 70.3769 21.1583V17.9807L71.0058 17.9458Z" fill="white"/>
<path d="M72.8924 17.9458V21.2281C72.8924 21.3678 72.8574 21.5075 72.7526 21.6122C72.6478 21.7519 72.508 21.8217 72.2983 21.8217H71.25V21.298H72.0887C72.1236 21.298 72.1585 21.298 72.1935 21.263C72.2284 21.2281 72.2284 21.1932 72.2284 21.1583V17.9807L72.8924 17.9458Z" fill="white"/>
<path d="M75.269 21.6494C75.269 21.9985 75.3738 22.243 75.5485 22.3826C75.7232 22.5223 76.0377 22.5921 76.492 22.5921C77.1909 22.5921 77.5403 22.4176 77.5403 22.0335C77.5403 21.8938 77.5054 21.789 77.4005 21.7192C77.2957 21.6494 77.1559 21.5795 76.9113 21.4748C76.5619 21.37 76.3173 21.2303 76.1775 21.0557C76.0377 20.8811 75.9329 20.6367 75.9329 20.3574C75.9329 19.9733 76.0727 19.6939 76.2823 19.4844C76.492 19.3098 76.7716 19.24 77.0861 19.24C77.2957 19.24 77.5054 19.2749 77.715 19.3447V19.8336C77.5054 19.7638 77.3307 19.7638 77.1909 19.7638C76.9812 19.7638 76.8065 19.8336 76.7017 19.9384C76.5968 20.0431 76.527 20.1828 76.527 20.3574C76.527 20.497 76.5619 20.6367 76.6667 20.7066C76.7716 20.7764 76.9113 20.8811 77.1909 20.951C77.5054 21.0557 77.75 21.1954 77.8898 21.3351C78.0645 21.5097 78.1344 21.7192 78.1344 21.9636C78.1344 22.3826 77.9596 22.662 77.5753 22.8715C77.3307 23.0112 76.9812 23.081 76.5968 23.081H76.0727C75.6534 23.081 75.3039 22.9762 75.0244 22.7667C74.6749 22.5223 74.5352 22.1382 74.5352 21.6494V21.0907L74.8846 20.8113H75.1991L75.269 21.6494ZM76.0028 23.4302C76.1076 23.4302 76.1775 23.4651 76.2474 23.5349C76.3173 23.6048 76.3522 23.6746 76.3522 23.7794C76.3522 23.8841 76.3173 23.954 76.2474 24.0238C76.1775 24.0936 76.1076 24.1285 76.0028 24.1285C75.898 24.1285 75.8281 24.0936 75.7582 24.0238C75.6883 23.954 75.6534 23.8841 75.6534 23.7794C75.6534 23.6746 75.6883 23.6048 75.7582 23.5349C75.8281 23.4651 75.898 23.4302 76.0028 23.4302ZM76.8414 23.4302C76.9463 23.4302 77.0162 23.4651 77.0861 23.5349C77.1559 23.6048 77.1909 23.6746 77.1909 23.7794C77.1909 23.8841 77.1559 23.954 77.0861 24.0238C77.0162 24.0936 76.9463 24.1285 76.8414 24.1285C76.7366 24.1285 76.6667 24.0936 76.5968 24.0238C76.5269 23.954 76.492 23.8841 76.492 23.7794C76.492 23.6746 76.5269 23.6048 76.5968 23.5349C76.6667 23.4651 76.7366 23.4302 76.8414 23.4302Z" fill="white"/>
<path d="M79.2175 19.3081C79.3573 19.2732 79.4971 19.2732 79.6368 19.2732C80.0562 19.2732 80.3707 19.4129 80.6502 19.6922C80.8599 19.9366 80.9997 20.216 80.9997 20.6001V21.2635C80.9997 21.4381 80.9298 21.5778 80.8249 21.6826C80.7201 21.7873 80.5803 21.8571 80.4405 21.8571H78.6934V21.2985H80.2309C80.3357 21.2985 80.3707 21.2635 80.3707 21.1588V20.6699C80.3707 20.4255 80.3008 20.216 80.161 20.0763C80.0212 19.9366 79.8116 19.8668 79.532 19.8319C79.3922 19.8319 79.3223 19.8319 79.2525 19.8668L79.2175 19.3081Z" fill="white"/>
<path d="M82.3631 17.947V21.1246C82.3631 21.1595 82.3632 21.1944 82.3981 21.1944C82.433 21.2293 82.468 21.2293 82.5029 21.2293H82.6427V21.788H82.2933C82.1535 21.788 82.0137 21.7182 81.9089 21.6135C81.7691 21.5087 81.6992 21.3341 81.6992 21.1595V17.8772H82.3631V17.947Z" fill="white"/>
<path d="M83.5856 21.2983V21.857H82.5723V21.2983H83.5856Z" fill="white"/>
<path d="M84.5661 21.2983V21.857H83.5527V21.2983H84.5661Z" fill="white"/>
<path d="M85.5446 21.2983V21.857H84.5312V21.2983H85.5446Z" fill="white"/>
<path d="M86.2067 19.4478C86.5561 19.343 86.8706 19.2732 87.1502 19.2732C87.5695 19.2732 87.9539 19.4129 88.1985 19.6922C88.4431 19.9366 88.5479 20.2509 88.5479 20.635V21.2985H88.7226V21.8571H88.6178L88.4431 21.6476C88.3033 21.7873 88.1635 21.8571 87.9888 21.8571H85.5078V21.2985H87.7792C87.884 21.2985 87.9189 21.2635 87.9189 21.1588V20.6699C87.9189 20.4255 87.849 20.216 87.6743 20.0763C87.4996 19.9366 87.2899 19.8668 87.0104 19.8668C86.8357 19.8668 86.5561 19.9017 86.2067 19.9716V19.4478Z" fill="white"/>
<path d="M90.3299 19.3437V21.2293C90.3299 21.369 90.2949 21.5086 90.1901 21.6134C90.0853 21.7531 89.9105 21.8229 89.7358 21.8229H88.6875V21.2991H89.5262C89.5611 21.2991 89.596 21.2991 89.631 21.2642C89.6659 21.2293 89.6659 21.1944 89.6659 21.1595V19.3437H90.3299ZM89.2117 18.1565C89.3165 18.1565 89.3864 18.1914 89.4563 18.2612C89.5261 18.3311 89.5611 18.4009 89.5611 18.5057C89.5611 18.6104 89.5261 18.6803 89.4563 18.7501C89.3864 18.8199 89.3165 18.8549 89.2117 18.8549C89.1068 18.8549 89.0369 18.8199 88.9671 18.7501C88.8972 18.6803 88.8622 18.6104 88.8622 18.5057C88.8622 18.4009 88.8972 18.3311 88.9671 18.2612C89.0369 18.1914 89.1418 18.1565 89.2117 18.1565ZM90.0503 18.1565C90.1551 18.1565 90.225 18.1914 90.2949 18.2612C90.3648 18.3311 90.3997 18.4009 90.3997 18.5057C90.3997 18.6104 90.3648 18.6803 90.2949 18.7501C90.225 18.8199 90.1551 18.8549 90.0503 18.8549C89.9455 18.8549 89.8756 18.8199 89.8057 18.7501C89.7358 18.6803 89.7009 18.6104 89.7009 18.5057C89.7009 18.4009 89.7358 18.3311 89.8057 18.2612C89.8756 18.1914 89.9455 18.1565 90.0503 18.1565Z" fill="white"/>
<path d="M93.9993 17.9458V21.2281C93.9993 21.3678 93.9644 21.5075 93.8595 21.6122C93.7547 21.7519 93.58 21.8217 93.4402 21.8217H91.2737L90.9941 21.4725V21.298H92.322L91.4135 18.6442H92.0425L92.951 21.298H93.2305C93.2655 21.298 93.3004 21.298 93.3354 21.263C93.3354 21.2281 93.3703 21.1932 93.3703 21.1583V17.9807L93.9993 17.9458ZM92.5317 23.1835C92.4618 23.0788 92.4268 22.974 92.4268 22.8693C92.4268 22.7296 92.4618 22.5899 92.5666 22.4852C92.6714 22.3804 92.7763 22.3455 92.951 22.3455C93.0209 22.3455 93.1257 22.3455 93.2305 22.3804V22.6947C93.1607 22.6598 93.0908 22.6598 93.0209 22.6598C92.8462 22.6598 92.7763 22.7296 92.7763 22.9042C92.7763 22.974 92.7763 23.0089 92.8462 23.0788C92.8811 23.1486 92.951 23.1486 93.0558 23.1486H93.4402V23.2883L93.3004 23.428H92.322V23.1486L92.5317 23.1835Z" fill="white"/>
<path d="M95.3964 17.9458V21.6821L95.0469 21.9614H94.7324V17.9458H95.3964Z" fill="white"/>
<path d="M98.6812 19.3437V21.2991H98.9608V21.8578H98.6812C98.6463 22.2768 98.4716 22.626 98.1571 22.8705C97.8775 23.045 97.563 23.1498 97.1787 23.1498C97.1437 23.1498 97.0738 23.1498 96.969 23.1498L96.6895 22.8355V22.5911C96.7943 22.626 96.8991 22.626 97.0389 22.626C97.6679 22.626 98.0173 22.3118 98.0173 21.6832V19.3786L98.6812 19.3437ZM98.3318 18.1565C98.4366 18.1565 98.5065 18.1914 98.5764 18.2612C98.6463 18.3311 98.6812 18.4009 98.6812 18.5057C98.6812 18.6104 98.6463 18.6803 98.5764 18.7501C98.5065 18.8199 98.4366 18.8549 98.3318 18.8549C98.227 18.8549 98.1571 18.8199 98.0872 18.7501C98.0173 18.6803 97.9824 18.6104 97.9824 18.5057C97.9824 18.4009 98.0173 18.3311 98.0872 18.2612C98.1571 18.1914 98.227 18.1565 98.3318 18.1565Z" fill="white"/>
<path d="M101.476 17.8772V18.5057L100.358 19.2041C100.813 19.3787 101.197 19.658 101.476 20.0421C101.721 20.3913 101.861 20.7754 101.861 21.1944C101.861 21.4039 101.791 21.5436 101.686 21.6833C101.581 21.788 101.442 21.8579 101.267 21.8579H98.8906V21.2992H101.057C101.162 21.2992 101.197 21.2643 101.197 21.1595C101.162 20.8103 101.057 20.531 100.813 20.2866C100.498 19.9374 100.114 19.7279 99.5895 19.6929C99.5546 19.6929 99.5546 19.6929 99.5546 19.658V19.0295L101.476 17.8772Z" fill="white"/>
<path d="M103.82 19.3442V21.2997H104.099V21.8584H103.785C103.75 22.2774 103.575 22.6266 103.261 22.871C103.016 23.0805 102.667 23.1503 102.282 23.1503C102.212 23.1503 102.142 23.1503 102.073 23.1503L101.793 22.8361V22.5916C101.898 22.6266 102.003 22.6266 102.142 22.6266C102.771 22.6266 103.121 22.3123 103.121 21.6838V19.3792L103.82 19.3442Z" fill="white"/>
<path d="M105.041 21.2983V21.857H104.027V21.2983H105.041Z" fill="white"/>
<path d="M106.019 21.2983V21.857H105.006V21.2983H106.019Z" fill="white"/>
<path d="M106.965 21.2983V21.857H105.951V21.2983H106.965Z" fill="white"/>
<path d="M107.943 21.2983V21.857H106.93V21.2983H107.943Z" fill="white"/>
<path d="M108.887 21.2989C108.817 21.0894 108.747 20.845 108.747 20.6006C108.747 20.1816 108.887 19.8324 109.131 19.6229C109.341 19.4133 109.62 19.3086 109.97 19.3086C110.284 19.3086 110.529 19.3784 110.739 19.5181C110.983 19.6927 111.088 19.972 111.088 20.2863V21.1593C111.088 21.1942 111.088 21.2291 111.123 21.264C111.158 21.2989 111.193 21.2989 111.228 21.2989H111.263V21.8576H111.018C110.843 21.8576 110.704 21.7878 110.599 21.683C110.424 21.8925 110.18 22.0322 109.9 22.0322C109.586 22.0322 109.306 21.9275 109.096 21.683L108.957 21.8576H107.908V21.2989H108.887ZM110.424 20.2863C110.424 20.1466 110.389 20.0419 110.284 19.972C110.214 19.9022 110.11 19.8324 109.97 19.8324C109.795 19.8324 109.655 19.9022 109.551 20.0419C109.446 20.1816 109.376 20.3561 109.376 20.6006C109.376 20.845 109.446 21.0545 109.551 21.2291C109.655 21.4037 109.795 21.4735 109.97 21.4735C110.11 21.4735 110.284 21.4037 110.424 21.264V20.2863Z" fill="white"/>
<path d="M112.869 17.9458V21.2281C112.869 21.3678 112.834 21.5075 112.729 21.6122C112.624 21.7519 112.485 21.8217 112.275 21.8217H111.227V21.298H112.065C112.1 21.298 112.135 21.298 112.17 21.263C112.205 21.2281 112.205 21.1932 112.205 21.1583V17.9807L112.869 17.9458Z" fill="white"/>
<path d="M114.267 17.9458V21.6821L113.918 21.9614H113.604V17.9458H114.267Z" fill="white"/>
<path d="M12.8964 28.1082V29.47H12.2324V26.2576H14.4688V26.8163H12.8964V27.5495H14.2941V28.1082H12.8964Z" fill="white"/>
<path d="M15.586 28.1087V28.9468H17.3332V29.5054H14.957V26.293H17.2633V26.8517H15.621V27.5849H17.1235V28.1436L15.586 28.1087Z" fill="white"/>
<path d="M17.8574 29.5054V26.293H19.1154C19.5697 26.293 19.9191 26.3977 20.1288 26.6771C20.3734 26.9913 20.5132 27.4104 20.5132 27.8992C20.5132 28.3881 20.3734 28.8071 20.1288 29.1213C19.9191 29.3658 19.5697 29.5054 19.1154 29.5054H17.8574ZM18.4864 28.9468H19.0805C19.5697 28.9468 19.8143 28.5976 19.8143 27.8992C19.8143 27.2008 19.5697 26.8517 19.0805 26.8517H18.4864V28.9468Z" fill="white"/>
<path d="M21.6661 28.1087V28.9468H23.4133V29.5054H21.0371V26.293H23.3434V26.8517H21.6661V27.5849H23.2036V28.1436L21.6661 28.1087Z" fill="white"/>
<path d="M24.5663 28.213V29.47H23.9023V26.2576H25.6146C25.8941 26.2576 26.1038 26.3274 26.2436 26.4671C26.4183 26.6417 26.4882 26.8512 26.4882 27.0956C26.4882 27.4797 26.3135 27.7591 25.9291 27.8987C26.1387 27.9686 26.2436 28.0733 26.3135 28.213C26.3484 28.2828 26.3834 28.5971 26.3834 29.0859C26.3834 29.1907 26.4183 29.2955 26.5231 29.3304V29.4351H25.8243C25.7544 29.3304 25.7194 29.1209 25.7194 28.8764C25.7194 28.8066 25.7194 28.7368 25.7194 28.6669V28.5273C25.7194 28.2828 25.5796 28.1432 25.3001 28.1432L24.5663 28.213ZM24.5663 27.6892H25.37C25.5447 27.6892 25.6495 27.6543 25.7194 27.6194C25.7893 27.5495 25.8243 27.4448 25.8243 27.2702C25.8243 27.0956 25.7893 26.9909 25.7194 26.9559C25.6495 26.8861 25.5447 26.8861 25.37 26.8861H24.5663V27.6892Z" fill="white"/>
<path d="M28.9347 28.8415H27.7466L27.537 29.47H26.873L27.9912 26.2576H28.7251L29.8433 29.47H29.1793L28.9347 28.8415ZM28.76 28.2828L28.3407 27.0258L27.9214 28.2828H28.76Z" fill="white"/>
<path d="M30.8905 26.293V28.9468H32.428V29.5054H30.2266V26.293H30.8905Z" fill="white"/>
<path d="M36.4118 27.7583V29.5042H36.0275L35.9576 29.0503C35.713 29.3995 35.3985 29.5392 34.9791 29.5392C34.5249 29.5392 34.1405 29.3646 33.8609 29.0154C33.6163 28.7011 33.4766 28.3519 33.4766 27.898C33.4766 27.3742 33.6513 26.9552 33.9658 26.6409C34.2453 26.3616 34.5948 26.2219 35.049 26.2219C35.5033 26.2219 35.7829 26.3267 36.0624 26.5362C36.2721 26.7108 36.4118 26.9552 36.4468 27.2695H35.8178C35.713 26.9552 35.4334 26.7806 35.049 26.7806C34.7695 26.7806 34.5249 26.8854 34.3502 27.0949C34.2104 27.2695 34.1405 27.5488 34.1405 27.8631C34.1405 28.2123 34.2453 28.4916 34.42 28.7011C34.5948 28.8757 34.8044 28.9805 35.049 28.9805C35.3286 28.9805 35.5382 28.8757 35.713 28.7011C35.7829 28.5964 35.8527 28.4567 35.8527 28.317H35.1189V27.7583C35.1539 27.7583 36.4118 27.7583 36.4118 27.7583Z" fill="white"/>
<path d="M37.7049 28.1087V28.9468H39.4521V29.5054H37.041V26.293H39.3473V26.8517H37.7049V27.5849H39.2425V28.1436L37.7049 28.1087Z" fill="white"/>
<path d="M41.3383 26.2576C41.7926 26.2576 42.142 26.3972 42.4216 26.6766C42.7011 26.9909 42.8758 27.4099 42.8758 27.8987C42.8758 28.3876 42.7361 28.8066 42.4216 29.1209C42.142 29.4002 41.7926 29.5399 41.3383 29.5399C40.884 29.5399 40.4997 29.4002 40.255 29.1209C39.9755 28.8066 39.8008 28.3876 39.8008 27.8987C39.8008 27.4099 39.9406 26.9909 40.255 26.6766C40.5346 26.3972 40.884 26.2576 41.3383 26.2576ZM41.3383 26.8163C41.0588 26.8163 40.8142 26.921 40.6744 27.1654C40.5346 27.375 40.4647 27.6194 40.4647 27.9336C40.4647 28.2828 40.5695 28.5622 40.7443 28.7717C40.884 28.9463 41.0937 29.0161 41.3733 29.0161C41.6528 29.0161 41.8974 28.9114 42.0372 28.6669C42.177 28.4574 42.2468 28.213 42.2468 27.8987C42.2468 27.5495 42.142 27.2702 41.9673 27.0607C41.7926 26.8861 41.6179 26.8163 41.3383 26.8163Z" fill="white"/>
<path d="M46.1968 27.7583V29.5042H45.7775L45.7076 29.0503C45.463 29.3995 45.1485 29.5392 44.7291 29.5392C44.2399 29.5392 43.8905 29.3646 43.6109 29.0154C43.3663 28.7011 43.2266 28.3519 43.2266 27.898C43.2266 27.3742 43.4013 26.9552 43.7158 26.6409C43.9953 26.3616 44.3448 26.2219 44.799 26.2219C45.2533 26.2219 45.5329 26.3267 45.8124 26.5362C46.0221 26.7108 46.1618 26.9552 46.1968 27.2695H45.5678C45.428 26.9552 45.1834 26.7806 44.799 26.7806C44.4845 26.7806 44.2749 26.8854 44.1002 27.0949C43.9604 27.2695 43.8905 27.5488 43.8905 27.8631C43.8905 28.2123 43.9953 28.4916 44.17 28.7011C44.3448 28.8757 44.5544 28.9805 44.799 28.9805C45.0786 28.9805 45.2882 28.8757 45.463 28.7011C45.5329 28.5964 45.6027 28.4567 45.6027 28.317H44.8689V27.7583H46.1968Z" fill="white"/>
<path d="M47.4532 28.213V29.47H46.8242V26.2576H48.5365C48.816 26.2576 49.0257 26.3274 49.1655 26.4671C49.3402 26.6417 49.4101 26.8512 49.4101 27.0956C49.4101 27.4797 49.2353 27.7591 48.851 27.8987C49.0606 27.9686 49.1655 28.0733 49.2353 28.213C49.2703 28.2828 49.3052 28.5971 49.3052 29.0859C49.3052 29.1907 49.3402 29.2955 49.445 29.3304V29.4351H48.7461C48.6762 29.3304 48.6413 29.1209 48.6413 28.8764C48.6413 28.8066 48.6413 28.7368 48.6413 28.6669V28.5273C48.6413 28.2828 48.5015 28.1432 48.222 28.1432L47.4532 28.213ZM47.4532 27.6892H48.2569C48.4316 27.6892 48.5365 27.6543 48.6064 27.6194C48.6762 27.5495 48.7112 27.4448 48.7112 27.2702C48.7112 27.0956 48.6762 26.9909 48.6064 26.9559C48.5365 26.8861 48.4316 26.8861 48.2569 26.8861H47.4532V27.6892Z" fill="white"/>
<path d="M51.8215 28.8415H50.6334L50.4237 29.47H49.7598L50.878 26.2576H51.6118L52.73 29.47H52.0661L51.8215 28.8415ZM51.6467 28.2828L51.2274 27.0258L50.8081 28.2828H51.6467Z" fill="white"/>
<path d="M53.7792 28.3531V29.5054H53.1152V26.293H54.513C54.8624 26.293 55.142 26.3977 55.3167 26.5723C55.4565 26.7469 55.5613 26.9913 55.5613 27.2707C55.5613 27.6199 55.4565 27.8992 55.2817 28.0738C55.107 28.2484 54.8974 28.3182 54.6178 28.3182L53.7792 28.3531ZM53.7792 27.7945H54.4082C54.7576 27.7945 54.9323 27.6199 54.9323 27.3056C54.9323 26.9913 54.7576 26.8167 54.4082 26.8167H53.7792V27.7945Z" fill="white"/>
<path d="M57.9727 28.0389H56.7147V29.5054H56.0508V26.293H56.7147V27.4802H57.9727V26.293H58.6366V29.5054H57.9727V28.0389Z" fill="white"/>
<path d="M59.9647 26.293V29.5054H59.3008V26.293H59.9647Z" fill="white"/>
<path d="M63.2484 27.375H62.6194C62.5495 26.9909 62.3049 26.8163 61.9555 26.8163C61.6759 26.8163 61.4663 26.921 61.3265 27.1305C61.1867 27.34 61.1168 27.5845 61.1168 27.8987C61.1168 28.2479 61.1867 28.5273 61.3615 28.7368C61.5012 28.9114 61.6759 28.9812 61.9206 28.9812C62.1302 28.9812 62.3049 28.9114 62.4098 28.8066C62.5146 28.7018 62.6194 28.5273 62.6194 28.3527H63.2484C63.2135 28.7368 63.0737 29.051 62.7941 29.2605C62.5495 29.4351 62.235 29.5399 61.8856 29.5399C61.3964 29.5399 61.047 29.3653 60.7674 29.051C60.5577 28.7717 60.418 28.3876 60.418 27.8987C60.418 27.34 60.5577 26.921 60.8722 26.6417C61.1168 26.3623 61.4663 26.2576 61.8856 26.2576C62.3748 26.2576 62.7592 26.4322 63.0038 26.7464C63.1785 26.921 63.2484 27.1305 63.2484 27.375Z" fill="white"/>
<path d="M65.2401 26.293V29.5054H64.5762V26.293H65.2401Z" fill="white"/>
<path d="M67.8611 29.5054L66.5682 27.3056V29.5054H65.9043V26.293H66.5682L67.8262 28.4579V26.293H68.4901V29.5054H67.8611Z" fill="white"/>
<path d="M69.8182 28.1082V29.47H69.1543V26.2576H71.3907V26.8163H69.7833V27.5495H71.181V28.1082H69.8182Z" fill="white"/>
<path d="M73.2426 26.2576C73.6969 26.2576 74.0463 26.3972 74.3259 26.6766C74.6404 26.9909 74.7801 27.4099 74.7801 27.8987C74.7801 28.3876 74.6404 28.8066 74.3259 29.1209C74.0463 29.4002 73.6969 29.5399 73.2426 29.5399C72.7883 29.5399 72.404 29.4002 72.1593 29.1209C71.8449 28.8066 71.7051 28.3876 71.7051 27.8987C71.7051 27.4099 71.8449 26.9909 72.1593 26.6766C72.404 26.3972 72.7883 26.2576 73.2426 26.2576ZM73.2426 26.8163C72.9631 26.8163 72.7184 26.921 72.5787 27.1654C72.4389 27.375 72.369 27.6194 72.369 27.9336C72.369 28.2828 72.4738 28.5622 72.6486 28.7717C72.7883 28.9463 72.998 29.0161 73.2775 29.0161C73.5571 29.0161 73.8017 28.9114 73.9415 28.6669C74.0813 28.4574 74.1511 28.213 74.1511 27.8987C74.1511 27.5495 74.0463 27.2702 73.8716 27.0607C73.6969 26.8861 73.4872 26.8163 73.2426 26.8163Z" fill="white"/>
<path d="M75.9335 28.213V29.47H75.2695V26.2576H76.9818C77.2613 26.2576 77.471 26.3274 77.6108 26.4671C77.7855 26.6417 77.8554 26.8512 77.8554 27.0956C77.8554 27.4797 77.6807 27.7591 77.2963 27.8987C77.5059 27.9686 77.6108 28.0733 77.6807 28.213C77.7156 28.2828 77.7505 28.5971 77.7505 29.0859C77.7505 29.1907 77.7855 29.2955 77.8903 29.3304V29.4351H77.1914C77.1216 29.3304 77.0866 29.1209 77.0866 28.8764C77.0866 28.8066 77.0866 28.7368 77.0866 28.6669V28.5273C77.0866 28.2828 76.9468 28.1432 76.6673 28.1432L75.9335 28.213ZM75.9335 27.6892H76.7372C76.9119 27.6892 77.0167 27.6543 77.0866 27.6194C77.1565 27.5495 77.1914 27.4448 77.1914 27.2702C77.1914 27.0956 77.1565 26.9909 77.0866 26.9559C77.0167 26.8861 76.9119 26.8861 76.7372 26.8861H75.9335V27.6892Z" fill="white"/>
<path d="M79.08 26.9909V29.47H78.416V26.2576H79.3944L79.9885 28.8066L80.5476 26.2576H81.526V29.47H80.8621V26.9909L80.303 29.47H79.674L79.08 26.9909Z" fill="white"/>
<path d="M84.0754 28.8415H82.8873L82.6776 29.47H82.0137L83.1319 26.2576H83.8657L84.9839 29.47H84.32L84.0754 28.8415ZM83.9006 28.2828L83.4813 27.0258L83.062 28.2828H83.9006Z" fill="white"/>
<path d="M86.7302 26.8517V29.5054H86.0663V26.8517H85.0879V26.293H87.6388V26.8517H86.7302Z" fill="white"/>
<path d="M88.7225 26.293V29.5054H88.0586V26.293H88.7225Z" fill="white"/>
<path d="M90.7856 26.2576C91.2398 26.2576 91.5893 26.3972 91.8688 26.6766C92.1833 26.9909 92.3231 27.4099 92.3231 27.8987C92.3231 28.3876 92.1833 28.8066 91.8688 29.1209C91.5893 29.4002 91.2398 29.5399 90.7856 29.5399C90.3313 29.5399 89.9469 29.4002 89.7023 29.1209C89.3878 28.8066 89.248 28.3876 89.248 27.8987C89.248 27.4099 89.3878 26.9909 89.7023 26.6766C89.9469 26.3972 90.3313 26.2576 90.7856 26.2576ZM90.7856 26.8163C90.506 26.8163 90.2614 26.921 90.1216 27.1654C89.9819 27.375 89.912 27.6194 89.912 27.9336C89.912 28.2828 90.0168 28.5622 90.1915 28.7717C90.3663 28.9463 90.541 29.0161 90.8205 29.0161C91.1001 29.0161 91.3447 28.9114 91.4844 28.6669C91.6242 28.4574 91.6941 28.213 91.6941 27.8987C91.6941 27.5495 91.5893 27.2702 91.4146 27.0607C91.2049 26.8861 91.0302 26.8163 90.7856 26.8163Z" fill="white"/>
<path d="M94.7694 29.5054L93.4764 27.3056V29.5054H92.8125V26.293H93.4764L94.7344 28.4579V26.293H95.3983V29.5054H94.7694Z" fill="white"/>
<path d="M99.5551 27.375H98.9261C98.8562 26.9909 98.6116 26.8163 98.2272 26.8163C97.9476 26.8163 97.738 26.921 97.5982 27.1305C97.4584 27.34 97.4235 27.5845 97.4235 27.8987C97.4235 28.2479 97.4934 28.5273 97.6681 28.7368C97.8079 28.9114 97.9826 28.9812 98.2272 28.9812C98.4369 28.9812 98.6116 28.9114 98.7164 28.8066C98.8212 28.7018 98.8911 28.5273 98.9261 28.3527H99.5551C99.5201 28.7368 99.3803 29.051 99.1008 29.2605C98.8562 29.4351 98.5766 29.5399 98.1923 29.5399C97.703 29.5399 97.3536 29.3653 97.074 29.051C96.8644 28.7717 96.7246 28.3876 96.7246 27.8987C96.7246 27.34 96.8644 26.921 97.1789 26.6417C97.4235 26.3623 97.7729 26.2576 98.1923 26.2576C98.6815 26.2576 99.0659 26.4322 99.3105 26.7464C99.4502 26.921 99.5201 27.1305 99.5551 27.375Z" fill="white"/>
<path d="M100.709 28.1087V28.9468H102.456V29.5054H100.08V26.293H102.386V26.8517H100.744V27.5849H102.282V28.1436L100.709 28.1087Z" fill="white"/>
<path d="M104.902 29.5054L103.609 27.3056V29.5054H102.945V26.293H103.609L104.867 28.4579V26.293H105.531V29.5054H104.902Z" fill="white"/>
<path d="M107.594 26.8517V29.5054H106.93V26.8517H105.951V26.293H108.502V26.8517H107.594Z" fill="white"/>
<path d="M109.584 28.1087V28.9468H111.331V29.5054H108.955V26.293H111.261V26.8517H109.619V27.5849H111.157V28.1436L109.584 28.1087Z" fill="white"/>
<path d="M112.484 28.213V29.47H111.82V26.2576H113.533C113.812 26.2576 114.022 26.3274 114.162 26.4671C114.336 26.6417 114.406 26.8512 114.406 27.0956C114.406 27.4797 114.231 27.7591 113.847 27.8987C114.057 27.9686 114.196 28.0733 114.231 28.213C114.266 28.2828 114.301 28.5971 114.301 29.0859C114.301 29.1907 114.336 29.2955 114.441 29.3304V29.4351H113.742C113.672 29.3304 113.637 29.1209 113.637 28.8764C113.637 28.8066 113.637 28.7368 113.637 28.6669V28.5273C113.637 28.2828 113.498 28.1432 113.218 28.1432L112.484 28.213ZM112.484 27.6892H113.288C113.463 27.6892 113.568 27.6543 113.637 27.6194C113.707 27.5495 113.742 27.4448 113.742 27.2702C113.742 27.0956 113.707 26.9909 113.637 26.9559C113.568 26.8861 113.463 26.8861 113.288 26.8861H112.484V27.6892Z" fill="white"/>
</g>
<defs>
<clipPath id="clip0_133_28520">
<rect width="115" height="46.5111" fill="white"/>
</clipPath>
</defs>
</svg>
