<svg width="177" height="72" viewBox="0 0 177 72" fill="none" xmlns="http://www.w3.org/2000/svg">
<g clip-path="url(#clip0_87_20394)">
<path d="M71.1012 71.5875H0.161349L0 0.269531H42.9727V6.9875H6.77666L6.88423 64.8695H64.3783V52.9384H71.1012V71.5875Z" fill="#EC6E3C"/>
<path d="M71.3704 18.8103H64.3786V6.98669H51.4707V0H71.3704V18.8103Z" fill="#F7C5B1"/>
<path d="M21.6201 29.5576V32.5673C21.6201 32.621 21.6201 32.6748 21.6739 32.7285C21.7277 32.7823 21.7815 32.7822 21.7815 32.7822H22.0504V33.6421H21.5126C21.2437 33.6421 21.0285 33.5347 20.8134 33.3197C20.4907 33.5884 20.168 33.6959 19.7377 33.6959C19.3075 33.6959 18.931 33.5347 18.6083 33.2659C18.178 32.8897 17.9629 32.3523 17.9629 31.6536C17.9629 31.0625 18.178 30.525 18.5545 30.1488C18.931 29.7726 19.3612 29.6114 19.8453 29.6114C20.1142 29.6114 20.4369 29.6651 20.7058 29.7726L21.0823 29.5039C21.1361 29.5576 21.6201 29.5576 21.6201 29.5576ZM20.5983 30.6325C20.3831 30.5788 20.2218 30.525 20.0604 30.525C19.7377 30.525 19.5226 30.6325 19.3075 30.8475C19.0923 31.0625 19.0386 31.3312 19.0386 31.7074C19.0386 32.0836 19.1461 32.3523 19.3075 32.5673C19.4688 32.7822 19.7377 32.8897 20.0066 32.8897C20.2218 32.8897 20.4369 32.836 20.652 32.7822V30.6325H20.5983ZM19.7915 27.9453C19.9529 27.9453 20.0604 27.9991 20.168 28.1065C20.2756 28.214 20.3293 28.3215 20.3293 28.4827C20.3293 28.644 20.2756 28.7515 20.168 28.859C20.0604 28.9664 19.9529 29.0202 19.7915 29.0202C19.6302 29.0202 19.5226 28.9664 19.415 28.859C19.3075 28.7515 19.2537 28.644 19.2537 28.4827C19.2537 28.3215 19.3075 28.214 19.415 28.1065C19.5226 27.9991 19.6839 27.9453 19.7915 27.9453ZM21.0823 27.9453C21.2437 27.9453 21.3512 27.9991 21.4588 28.1065C21.5664 28.214 21.6201 28.3215 21.6201 28.4827C21.6201 28.644 21.5664 28.7515 21.4588 28.859C21.3512 28.9664 21.2437 29.0202 21.0823 29.0202C20.921 29.0202 20.8134 28.9664 20.7058 28.859C20.5983 28.7515 20.5445 28.644 20.5445 28.4827C20.5445 28.3215 20.5983 28.214 20.7058 28.1065C20.8134 27.9991 20.921 27.9453 21.0823 27.9453Z" fill="#868686"/>
<path d="M24.4701 29.7734V32.7831H24.9004V33.643H24.6315L24.3088 33.3205C24.1474 33.5355 23.8785 33.643 23.6096 33.643H21.9961V32.7831H23.2331C23.3407 32.7831 23.3407 32.7831 23.3945 32.7293C23.4482 32.6756 23.4482 32.6219 23.4482 32.5681V29.8272L24.4701 29.7734ZM22.6953 34.2342C22.8566 34.2342 22.9642 34.2879 23.0718 34.3954C23.1793 34.5029 23.2331 34.6104 23.2331 34.7716C23.2331 34.9328 23.1793 35.0403 23.0718 35.1478C22.9642 35.2553 22.8566 35.309 22.6953 35.309C22.5339 35.309 22.4264 35.2553 22.3188 35.1478C22.2112 35.0403 22.1574 34.9328 22.1574 34.7716C22.1574 34.6104 22.2112 34.5029 22.3188 34.3954C22.4264 34.2879 22.5339 34.2342 22.6953 34.2342ZM23.9323 34.2342C24.0936 34.2342 24.2012 34.2879 24.3088 34.3954C24.4163 34.5029 24.4701 34.6104 24.4701 34.7716C24.4701 34.9328 24.4163 35.0403 24.3088 35.1478C24.2012 35.2553 24.0936 35.309 23.9323 35.309C23.7709 35.309 23.6634 35.2553 23.5558 35.1478C23.4482 35.0403 23.3945 34.9328 23.3945 34.7716C23.3945 34.6104 23.4482 34.5029 23.5558 34.3954C23.6634 34.2879 23.8247 34.2342 23.9323 34.2342Z" fill="#868686"/>
<path d="M26.514 32.7822C26.4065 32.621 26.2989 32.406 26.1913 32.1911C26.1375 31.9761 26.0838 31.7611 26.0838 31.5461C26.0838 31.0625 26.2451 30.6325 26.514 30.31C26.8905 29.8801 27.3746 29.6651 28.02 29.6651C28.504 29.6651 28.8805 29.7726 29.2032 30.0413C29.5259 30.31 29.741 30.74 29.741 31.2237V32.7285C29.741 32.9435 29.6872 33.1585 29.5259 33.3197C29.3645 33.5347 29.0956 33.6421 28.8267 33.6421H24.793V32.7822C24.8468 32.7822 26.514 32.7822 26.514 32.7822ZM28.7729 31.2237C28.7729 31.0087 28.6653 30.7937 28.5578 30.6862C28.4502 30.5788 28.2889 30.525 28.1275 30.525C27.751 30.525 27.4821 30.6862 27.3208 30.955C27.2132 31.1162 27.1594 31.3849 27.1594 31.6536C27.1594 32.0298 27.267 32.2986 27.5359 32.5135C27.6973 32.6748 27.9662 32.7822 28.2889 32.7822H28.6116C28.7729 32.7822 28.8267 32.7285 28.8267 32.5673L28.7729 31.2237ZM28.0737 27.9453C28.2351 27.9453 28.3427 27.9991 28.4502 28.1065C28.5578 28.214 28.6116 28.3215 28.6116 28.4827C28.6116 28.644 28.5578 28.7515 28.4502 28.859C28.3427 28.9664 28.2351 29.0202 28.0737 29.0202C27.9124 29.0202 27.8048 28.9664 27.6973 28.859C27.5897 28.7515 27.5359 28.644 27.5359 28.4827C27.5359 28.3215 27.5897 28.214 27.6973 28.1065C27.8048 27.9991 27.9662 27.9453 28.0737 27.9453Z" fill="#868686"/>
<path d="M31.8383 27.6211V33.3717L31.3005 33.8016H30.8164V27.6211H31.8383Z" fill="#868686"/>
<path d="M34.7443 29.7734V32.7831H35.1745V33.643H34.7443C34.6905 34.2879 34.4216 34.8253 33.9375 35.2016C33.5073 35.524 33.0232 35.6315 32.4316 35.6315C32.324 35.6315 32.2165 35.6315 32.1089 35.6315L31.7324 35.0941V34.7179C31.8938 34.7716 32.1089 34.7716 32.2703 34.7716C33.2383 34.7716 33.7224 34.2879 33.7224 33.3205V29.7734H34.7443Z" fill="#868686"/>
<path d="M36.2496 31.2237C36.411 30.6862 36.7875 30.2563 37.2715 29.9876C37.648 29.7726 38.0245 29.6651 38.4547 29.6651C38.885 29.6651 39.3153 29.7726 39.638 30.0413C40.0682 30.31 40.3909 30.74 40.6061 31.2237L40.4985 31.4387C40.2834 31.5461 40.0682 31.7074 39.7993 31.9761C39.5842 32.2448 39.4228 32.5135 39.3691 32.7285H40.7136V33.5884H38.885C38.7237 33.5884 38.5623 33.5347 38.4547 33.3734H38.401C38.2934 33.5347 38.132 33.5884 37.9707 33.5884H35.0664V32.7822H37.4866C37.4329 32.5673 37.2715 32.2986 37.0564 32.0836C36.8412 31.8149 36.5723 31.6536 36.3034 31.5461L36.2496 31.2237ZM39.5842 31.1699C39.4766 30.955 39.2615 30.74 39.0464 30.6325C38.885 30.525 38.6699 30.525 38.4547 30.525C38.2396 30.525 38.0245 30.5788 37.8093 30.6862C37.5942 30.7937 37.4329 30.955 37.2715 31.1699C37.4329 31.2774 37.648 31.4387 37.8631 31.6536C38.0783 31.9224 38.2934 32.1911 38.401 32.5135H38.4547C38.5623 32.1911 38.7237 31.9223 38.9926 31.5999C39.2615 31.3849 39.4228 31.2774 39.5842 31.1699ZM38.4547 27.9453C38.6161 27.9453 38.7237 27.9991 38.8312 28.1065C38.9388 28.214 38.9926 28.3215 38.9926 28.4827C38.9926 28.644 38.9388 28.7515 38.8312 28.859C38.7237 28.9664 38.6161 29.0202 38.4547 29.0202C38.2934 29.0202 38.1858 28.9664 38.0783 28.859C37.9707 28.7515 37.9169 28.644 37.9169 28.4827C37.9169 28.3215 37.9707 28.214 38.0783 28.1065C38.1858 27.9991 38.3472 27.9453 38.4547 27.9453Z" fill="#868686"/>
<path d="M42.2199 32.7812V33.6411H40.6602V32.7812H42.2199Z" fill="#868686"/>
<path d="M43.7257 32.7812V33.6411H42.166V32.7812H43.7257Z" fill="#868686"/>
<path d="M45.2316 32.7812V33.6411H43.6719V32.7812H45.2316Z" fill="#868686"/>
<path d="M46.6837 32.7812V33.6411H45.1777V32.7812H46.6837Z" fill="#868686"/>
<path d="M48.1886 32.7812V33.6411H46.6289V32.7812H48.1886Z" fill="#868686"/>
<path d="M49.6945 32.7812V33.6411H48.1348V32.7812H49.6945Z" fill="#868686"/>
<path d="M51.1476 32.7812V33.6411H49.5879V32.7812H51.1476Z" fill="#868686"/>
<path d="M52.6535 32.7812V33.6411H51.0938V32.7812H52.6535Z" fill="#868686"/>
<path d="M54.1046 32.7812V33.6411H52.5449V32.7812H54.1046Z" fill="#868686"/>
<path d="M55.6105 32.7812V33.6411H54.0508V32.7812H55.6105Z" fill="#868686"/>
<path d="M56.6323 29.9328C57.1701 29.7715 57.6542 29.6641 58.0844 29.6641C58.7298 29.6641 59.3215 29.879 59.6979 30.309C60.0744 30.6852 60.2358 31.1689 60.2358 31.7601V32.7812H60.5047V33.6411H60.3433L60.0744 33.3186C59.9131 33.5336 59.6442 33.6411 59.3752 33.6411H55.5566V32.7812H59.0525C59.2139 32.7812 59.2677 32.7275 59.2677 32.5662V31.8138C59.2677 31.4376 59.1601 31.1151 58.8912 30.9002C58.6223 30.6852 58.2996 30.5777 57.9231 30.5777C57.6542 30.5777 57.2239 30.6314 56.6861 30.7389L56.6323 29.9328ZM57.8155 34.2323C57.9769 34.2323 58.0844 34.286 58.192 34.3935C58.2996 34.501 58.3534 34.6085 58.3534 34.7697C58.3534 34.9309 58.2996 35.0384 58.192 35.1459C58.0844 35.2534 57.9769 35.3072 57.8155 35.3072C57.6542 35.3072 57.5466 35.2534 57.439 35.1459C57.3315 35.0384 57.2777 34.9309 57.2777 34.7697C57.2777 34.6085 57.3315 34.501 57.439 34.3935C57.5466 34.286 57.6542 34.2323 57.8155 34.2323Z" fill="#868686"/>
<path d="M63.0337 27.6211V32.673C63.0337 32.888 62.9799 33.103 62.8185 33.2642C62.6572 33.4792 62.442 33.5866 62.1194 33.5866H60.5059V32.7805H61.7967C61.8504 32.7805 61.9042 32.7805 61.958 32.7267C62.0118 32.673 62.0118 32.6193 62.0118 32.5655V27.6748L63.0337 27.6211Z" fill="#868686"/>
<path d="M65.184 27.6211V33.3717L64.6462 33.8016H64.1621V27.6211H65.184Z" fill="#868686"/>
<path d="M74.9186 29.7736V32.6757C74.9186 32.8907 74.8648 33.1057 74.7035 33.2669C74.5421 33.4819 74.2732 33.5894 74.0043 33.5894H69.3252C68.9487 33.5894 68.6798 33.4819 68.4109 33.2132C68.0882 32.9444 67.873 32.5145 67.873 32.0846V30.741L68.4109 30.311H68.8949V32.0308C68.8949 32.2458 68.9487 32.407 69.1101 32.5145C69.2176 32.622 69.379 32.6757 69.5403 32.6757H73.6816C73.843 32.6757 73.8967 32.622 73.8967 32.4608V29.6661H74.9186V29.7736ZM70.7773 29.5586C70.9387 29.5586 71.0462 29.6123 71.1538 29.7198C71.2614 29.8273 71.3152 29.9348 71.3152 30.096C71.3152 30.2573 71.2614 30.3648 71.1538 30.4722C71.0462 30.5797 70.9387 30.6335 70.7773 30.6335C70.616 30.6335 70.5084 30.5797 70.4008 30.4722C70.2933 30.3648 70.2395 30.2573 70.2395 30.096C70.2395 29.9348 70.2933 29.8273 70.4008 29.7198C70.5084 29.6123 70.616 29.5586 70.7773 29.5586ZM72.0143 29.5586C72.1757 29.5586 72.2833 29.6123 72.3908 29.7198C72.4984 29.8273 72.5522 29.9348 72.5522 30.096C72.5522 30.2573 72.4984 30.3648 72.3908 30.4722C72.2833 30.5797 72.1757 30.6335 72.0143 30.6335C71.853 30.6335 71.7454 30.5797 71.6379 30.4722C71.5303 30.3648 71.4765 30.2573 71.4765 30.096C71.4765 29.9348 71.5303 29.8273 71.6379 29.7198C71.7454 29.6123 71.9068 29.5586 72.0143 29.5586Z" fill="#868686"/>
<path d="M77.0707 27.6231V32.5138C77.0707 32.5675 77.0707 32.6213 77.1245 32.6213C77.1783 32.675 77.2321 32.675 77.2858 32.675H77.501V33.5349H76.9631C76.748 33.5349 76.5329 33.4274 76.3715 33.2662C76.1564 33.105 76.0488 32.8363 76.0488 32.5675V27.5156H77.0707V27.6231Z" fill="#868686"/>
<path d="M78.9532 31.2236C78.9532 30.6861 79.1145 30.3099 79.491 30.0412C79.7599 29.8262 80.1902 29.7188 80.6742 29.7188C81.1583 29.7188 81.5886 29.88 81.9113 30.1487C82.3415 30.5249 82.5567 31.0623 82.5567 31.7073C82.5567 32.3522 82.3953 32.8896 82.0726 33.2658C81.7499 33.6958 81.3196 33.857 80.7818 33.857C80.2978 33.857 79.9751 33.6958 79.7062 33.3196C79.5448 33.4808 79.3297 33.5883 79.0608 33.5883H77.4473V32.7821H78.7381C78.7918 32.7821 78.8456 32.7821 78.8994 32.7284C78.9532 32.6747 78.9532 32.6209 78.9532 32.5672V31.2236ZM79.9751 32.6747C80.1902 32.8896 80.4053 32.9971 80.6742 32.9971C80.9432 32.9971 81.1583 32.8896 81.3196 32.6747C81.481 32.4597 81.5886 32.1372 81.5886 31.761C81.5886 31.3311 81.481 31.0623 81.3196 30.7936C81.1583 30.5786 80.9432 30.5249 80.6742 30.5249C80.4591 30.5249 80.2978 30.5787 80.1902 30.7399C80.0826 30.8474 79.9751 31.0086 79.9751 31.2236V32.6747Z" fill="#868686"/>
<path d="M85.2984 33.5903C84.7068 33.5903 84.2228 33.3753 83.8463 32.9454C83.5236 32.5692 83.416 32.1392 83.416 31.6018C83.416 30.9569 83.5774 30.4732 83.9538 30.1507C84.3303 29.7745 84.8144 29.6133 85.3522 29.6133C85.7825 29.6133 86.1052 29.7208 86.4279 29.9357C86.8043 30.2045 87.0195 30.6344 87.0195 31.1719V32.7842H87.2884V33.6441H87.0195C86.9657 34.2352 86.7506 34.7189 86.3741 35.0414C86.1052 35.2564 85.7825 35.4713 85.406 35.5251C85.1371 35.5788 84.8682 35.6326 84.653 35.6326C84.5455 35.6326 84.4379 35.6326 84.2765 35.6326H84.2228L83.7925 35.0951V34.7189C84.0076 34.7727 84.2228 34.7727 84.4379 34.7727C85.3522 34.7727 85.8363 34.3965 85.9438 33.6441L85.2984 33.5903ZM85.9976 31.2256C85.9976 31.0106 85.9438 30.8494 85.7825 30.6882C85.6749 30.5807 85.5135 30.5269 85.3522 30.5269C85.0833 30.5269 84.8682 30.6344 84.653 30.8494C84.4379 31.0644 84.3841 31.3331 84.3841 31.6555C84.3841 31.978 84.4917 32.2467 84.653 32.4617C84.8144 32.6767 85.0833 32.7842 85.406 32.7842H85.9976V31.2256Z" fill="#868686"/>
<path d="M89.7631 27.6211V32.7805H90.1933V33.6404H89.9244L89.6017 33.3179C89.3866 33.5329 89.1715 33.6404 88.9026 33.6404H87.2891V32.7805H88.5799C88.6336 32.7805 88.6874 32.7805 88.7412 32.7267C88.795 32.673 88.795 32.6193 88.795 32.5655V27.6748L89.7631 27.6211Z" fill="#868686"/>
<path d="M91.6456 32.7812V33.6411H90.0859V32.7812H91.6456Z" fill="#868686"/>
<path d="M93.1515 32.7812V33.6411H91.5918V32.7812H93.1515Z" fill="#868686"/>
<path d="M94.6574 32.7812V33.6411H93.0977V32.7812H94.6574Z" fill="#868686"/>
<path d="M96.1105 32.7812V33.6411H94.5508V32.7812H96.1105Z" fill="#868686"/>
<path d="M97.239 31.2226C97.4541 30.6852 97.7768 30.2552 98.2608 29.9865C98.6373 29.7715 99.0138 29.6641 99.4441 29.6641C99.8743 29.6641 100.305 29.7716 100.627 30.0403C101.058 30.309 101.38 30.7389 101.595 31.2226L101.488 31.4376C101.273 31.5451 101.004 31.7063 100.789 31.975C100.574 32.2438 100.412 32.5125 100.305 32.7275H101.649V33.5874H99.8206C99.6592 33.5874 99.4979 33.5336 99.3903 33.3724H99.3365C99.2289 33.5336 99.0676 33.5874 98.9062 33.5874H96.002V32.7812H98.4222C98.3684 32.5662 98.2071 32.2975 97.9919 32.0825C97.7768 31.8138 97.5079 31.6526 97.239 31.5451V31.2226ZM100.574 31.1689C100.466 30.9539 100.251 30.7389 100.036 30.6314C99.8743 30.524 99.6592 30.524 99.4441 30.524C99.2289 30.524 99.0138 30.5777 98.7987 30.6852C98.5835 30.7927 98.4222 30.9539 98.2608 31.1689C98.476 31.2764 98.6373 31.4376 98.8525 31.6526C99.0676 31.9213 99.2827 32.19 99.3903 32.5125H99.4441C99.5516 32.19 99.713 31.9213 99.9819 31.5988C100.197 31.3839 100.412 31.2764 100.574 31.1689Z" fill="#868686"/>
<path d="M103.155 32.7821C103.048 32.4597 102.94 32.0835 102.94 31.7073C102.94 31.0623 103.155 30.5249 103.532 30.2024C103.854 29.88 104.285 29.7188 104.823 29.7188C105.307 29.7188 105.683 29.8262 106.006 30.0412C106.382 30.3099 106.544 30.7399 106.544 31.2236V32.5672C106.544 32.6209 106.544 32.6747 106.597 32.7284C106.651 32.7821 106.705 32.7821 106.759 32.7821H106.813V33.642H106.49C106.221 33.642 106.006 33.5346 105.844 33.3733C105.576 33.6958 105.199 33.9108 104.769 33.9108C104.285 33.9108 103.854 33.7495 103.532 33.3733L103.317 33.642H101.703V32.7821H103.155ZM105.522 31.2236C105.522 31.0086 105.468 30.8474 105.307 30.7399C105.199 30.6324 105.038 30.5249 104.823 30.5249C104.554 30.5249 104.338 30.6324 104.177 30.8474C104.016 31.0623 103.908 31.3311 103.908 31.7073C103.908 32.0835 104.016 32.4059 104.177 32.6747C104.338 32.9434 104.554 33.0509 104.823 33.0509C105.038 33.0509 105.307 32.9434 105.522 32.7284V31.2236Z" fill="#868686"/>
<path d="M109.287 27.6211V32.7805H109.717V33.6404H109.448L109.125 33.3179C108.91 33.5329 108.695 33.6404 108.426 33.6404H106.812V32.7805H108.103C108.157 32.7805 108.211 32.7805 108.265 32.7267C108.318 32.673 108.318 32.6193 108.318 32.5655V27.6748L109.287 27.6211Z" fill="#868686"/>
<path d="M112.19 27.6211V32.673C112.19 32.888 112.136 33.103 111.975 33.2642C111.813 33.4792 111.598 33.5866 111.276 33.5866H109.662V32.7805H110.953C111.007 32.7805 111.06 32.7805 111.114 32.7267C111.168 32.673 111.168 32.6193 111.168 32.5655V27.6748L112.19 27.6211Z" fill="#868686"/>
<path d="M115.848 33.3216C115.848 33.859 116.01 34.2352 116.278 34.4502C116.547 34.6652 117.031 34.7727 117.731 34.7727C118.806 34.7727 119.344 34.504 119.344 33.9128C119.344 33.6978 119.29 33.5366 119.129 33.4291C118.968 33.3216 118.752 33.2141 118.376 33.0529C117.838 32.8917 117.462 32.6767 117.247 32.408C117.031 32.1392 116.87 31.763 116.87 31.3331C116.87 30.7419 117.085 30.312 117.408 29.9895C117.731 29.7208 118.161 29.6133 118.645 29.6133C118.968 29.6133 119.29 29.667 119.613 29.7745V30.5269C119.29 30.4194 119.021 30.4194 118.806 30.4194C118.484 30.4194 118.215 30.5269 118.053 30.6882C117.892 30.8494 117.784 31.0644 117.784 31.3331C117.784 31.5481 117.838 31.763 118 31.8705C118.161 31.978 118.376 32.1392 118.806 32.2467C119.29 32.408 119.667 32.6229 119.882 32.8379C120.151 33.1066 120.258 33.4291 120.258 33.8053C120.258 34.4502 119.989 34.8802 119.398 35.2026C119.021 35.4176 118.484 35.5251 117.892 35.5251H117.085C116.44 35.5251 115.902 35.3639 115.472 35.0414C114.934 34.6652 114.719 34.074 114.719 33.3216V32.4617L115.257 32.0317H115.741L115.848 33.3216ZM116.978 36.0625C117.139 36.0625 117.247 36.1163 117.354 36.2238C117.462 36.3313 117.515 36.4387 117.515 36.6C117.515 36.7612 117.462 36.8687 117.354 36.9762C117.247 37.0837 117.139 37.1374 116.978 37.1374C116.816 37.1374 116.709 37.0837 116.601 36.9762C116.494 36.8687 116.44 36.7612 116.44 36.6C116.44 36.4387 116.494 36.3313 116.601 36.2238C116.709 36.1163 116.816 36.0625 116.978 36.0625ZM118.268 36.0625C118.43 36.0625 118.537 36.1163 118.645 36.2238C118.752 36.3313 118.806 36.4387 118.806 36.6C118.806 36.7612 118.752 36.8687 118.645 36.9762C118.537 37.0837 118.43 37.1374 118.268 37.1374C118.107 37.1374 118 37.0837 117.892 36.9762C117.784 36.8687 117.731 36.7612 117.731 36.6C117.731 36.4387 117.784 36.3313 117.892 36.2238C118 36.1163 118.107 36.0625 118.268 36.0625Z" fill="#868686"/>
<path d="M121.926 29.7178C122.141 29.6641 122.356 29.6641 122.571 29.6641C123.217 29.6641 123.701 29.879 124.131 30.309C124.454 30.6852 124.669 31.1151 124.669 31.7063V32.7275C124.669 32.9962 124.561 33.2111 124.4 33.3724C124.239 33.5336 124.023 33.6411 123.808 33.6411H121.119V32.7812H123.486C123.647 32.7812 123.701 32.7275 123.701 32.5662V31.8138C123.701 31.4376 123.593 31.1151 123.378 30.9002C123.163 30.6852 122.84 30.5777 122.41 30.524C122.195 30.524 122.087 30.524 121.98 30.5777L121.926 29.7178Z" fill="#868686"/>
<path d="M126.766 27.6231V32.5138C126.766 32.5675 126.766 32.6213 126.82 32.6213C126.874 32.675 126.927 32.675 126.981 32.675H127.196V33.5349H126.658C126.443 33.5349 126.228 33.4274 126.067 33.2662C125.852 33.105 125.744 32.8363 125.744 32.5675V27.5156H126.766V27.6231Z" fill="#868686"/>
<path d="M128.648 32.7812V33.6411H127.088V32.7812H128.648Z" fill="#868686"/>
<path d="M130.155 32.7812V33.6411H128.596V32.7812H130.155Z" fill="#868686"/>
<path d="M131.661 32.7812V33.6411H130.102V32.7812H131.661Z" fill="#868686"/>
<path d="M132.681 29.9328C133.219 29.7715 133.703 29.6641 134.133 29.6641C134.779 29.6641 135.37 29.879 135.747 30.309C136.123 30.6852 136.285 31.1689 136.285 31.7601V32.7812H136.554V33.6411H136.392L136.123 33.3186C135.908 33.5336 135.693 33.6411 135.424 33.6411H131.605V32.7812H135.101C135.263 32.7812 135.317 32.7275 135.317 32.5662V31.8138C135.317 31.4376 135.209 31.1151 134.94 30.9002C134.671 30.6852 134.348 30.5777 133.918 30.5777C133.649 30.5777 133.219 30.6314 132.681 30.7389V29.9328Z" fill="#868686"/>
<path d="M139.028 29.7726V32.6748C139.028 32.8897 138.974 33.1047 138.813 33.2659C138.651 33.4809 138.382 33.5884 138.113 33.5884H136.5V32.7822H137.791C137.845 32.7822 137.898 32.7823 137.952 32.7285C138.006 32.6748 138.006 32.621 138.006 32.5673V29.7726H139.028ZM137.307 27.9453C137.468 27.9453 137.576 27.9991 137.683 28.1065C137.791 28.214 137.845 28.3215 137.845 28.4827C137.845 28.644 137.791 28.7515 137.683 28.859C137.576 28.9664 137.468 29.0202 137.307 29.0202C137.145 29.0202 137.038 28.9664 136.93 28.859C136.823 28.7515 136.769 28.644 136.769 28.4827C136.769 28.3215 136.823 28.214 136.93 28.1065C137.038 27.9991 137.199 27.9453 137.307 27.9453ZM138.598 27.9453C138.759 27.9453 138.866 27.9991 138.974 28.1065C139.082 28.214 139.135 28.3215 139.135 28.4827C139.135 28.644 139.082 28.7515 138.974 28.859C138.866 28.9664 138.759 29.0202 138.598 29.0202C138.436 29.0202 138.329 28.9664 138.221 28.859C138.113 28.7515 138.06 28.644 138.06 28.4827C138.06 28.3215 138.113 28.214 138.221 28.1065C138.329 27.9991 138.436 27.9453 138.598 27.9453Z" fill="#868686"/>
<path d="M144.676 27.6211V32.673C144.676 32.888 144.622 33.103 144.461 33.2642C144.3 33.4792 144.031 33.5866 143.816 33.5866H140.481L140.051 33.0492V32.7805H142.095L140.696 28.696H141.664L143.063 32.7805H143.493C143.547 32.7805 143.6 32.7805 143.654 32.7267C143.654 32.673 143.708 32.6193 143.708 32.5655V27.6748L144.676 27.6211ZM142.417 35.6827C142.31 35.5214 142.256 35.3602 142.256 35.199C142.256 34.984 142.31 34.769 142.471 34.6078C142.632 34.4465 142.794 34.3928 143.063 34.3928C143.17 34.3928 143.332 34.3928 143.493 34.4465V34.9302C143.385 34.8765 143.278 34.8765 143.17 34.8765C142.901 34.8765 142.794 34.984 142.794 35.2527C142.794 35.3602 142.794 35.4139 142.901 35.5214C142.955 35.6289 143.063 35.6289 143.224 35.6289H143.816V35.8439L143.6 36.0589H142.095V35.6289L142.417 35.6827Z" fill="#868686"/>
<path d="M146.827 27.6211V33.3717L146.289 33.8016H145.805V27.6211H146.827Z" fill="#868686"/>
<path d="M151.882 29.7726V32.7822H152.312V33.6421H151.882C151.828 34.2871 151.559 34.8245 151.075 35.2007C150.645 35.4694 150.161 35.6307 149.569 35.6307C149.516 35.6307 149.408 35.6307 149.247 35.6307L148.816 35.147V34.7708C148.978 34.8245 149.139 34.8245 149.354 34.8245C150.322 34.8245 150.86 34.3408 150.86 33.3734V29.8263L151.882 29.7726ZM151.344 27.9453C151.506 27.9453 151.613 27.9991 151.721 28.1065C151.828 28.214 151.882 28.3215 151.882 28.4827C151.882 28.644 151.828 28.7515 151.721 28.859C151.613 28.9664 151.506 29.0202 151.344 29.0202C151.183 29.0202 151.075 28.9664 150.968 28.859C150.86 28.7515 150.806 28.644 150.806 28.4827C150.806 28.3215 150.86 28.214 150.968 28.1065C151.075 27.9991 151.183 27.9453 151.344 27.9453Z" fill="#868686"/>
<path d="M156.185 27.5156V28.483L154.464 29.5579C155.163 29.8266 155.755 30.2566 156.185 30.8477C156.562 31.3852 156.777 31.9764 156.777 32.6213C156.777 32.9437 156.669 33.1587 156.508 33.3737C156.346 33.5349 156.131 33.6424 155.862 33.6424H152.205V32.7825H155.54C155.701 32.7825 155.755 32.7288 155.755 32.5675C155.701 32.0301 155.54 31.6001 155.163 31.2239C154.679 30.6865 154.087 30.364 153.281 30.3103C153.227 30.3103 153.227 30.3103 153.227 30.2566V29.2892L156.185 27.5156Z" fill="#868686"/>
<path d="M159.789 29.7734V32.7831H160.22V33.643H159.736C159.682 34.2879 159.413 34.8253 158.929 35.2016C158.552 35.524 158.015 35.6315 157.423 35.6315C157.315 35.6315 157.208 35.6315 157.1 35.6315L156.67 35.1478V34.7716C156.831 34.8253 156.993 34.8254 157.208 34.8254C158.176 34.8254 158.714 34.3417 158.714 33.3743V29.8272L159.789 29.7734Z" fill="#868686"/>
<path d="M161.671 32.7812V33.6411H160.111V32.7812H161.671Z" fill="#868686"/>
<path d="M163.177 32.7812V33.6411H161.617V32.7812H163.177Z" fill="#868686"/>
<path d="M164.63 32.7812V33.6411H163.07V32.7812H164.63Z" fill="#868686"/>
<path d="M166.136 32.7812V33.6411H164.576V32.7812H166.136Z" fill="#868686"/>
<path d="M167.588 32.7821C167.48 32.4597 167.373 32.0835 167.373 31.7073C167.373 31.0623 167.588 30.5249 167.964 30.2024C168.287 29.88 168.717 29.7188 169.255 29.7188C169.739 29.7188 170.116 29.8262 170.438 30.0412C170.815 30.3099 170.976 30.7399 170.976 31.2236V32.5672C170.976 32.6209 170.976 32.6747 171.03 32.7284C171.084 32.7821 171.138 32.7821 171.191 32.7821H171.245V33.642H170.869C170.6 33.642 170.385 33.5346 170.223 33.3733C169.954 33.6958 169.578 33.9108 169.148 33.9108C168.664 33.9108 168.233 33.7495 167.911 33.3733L167.696 33.642H166.082V32.7821H167.588ZM169.954 31.2236C169.954 31.0086 169.901 30.8474 169.739 30.7399C169.632 30.6324 169.47 30.5249 169.255 30.5249C168.986 30.5249 168.771 30.6324 168.61 30.8474C168.448 31.0623 168.341 31.3311 168.341 31.7073C168.341 32.0835 168.448 32.4059 168.61 32.6747C168.771 32.9434 168.986 33.0509 169.255 33.0509C169.47 33.0509 169.739 32.9434 169.954 32.7284V31.2236Z" fill="#868686"/>
<path d="M173.719 27.6211V32.673C173.719 32.888 173.665 33.103 173.504 33.2642C173.343 33.4792 173.128 33.5866 172.805 33.5866H171.191V32.7805H172.482C172.536 32.7805 172.59 32.7805 172.644 32.7267C172.697 32.673 172.697 32.6193 172.697 32.5655V27.6748L173.719 27.6211Z" fill="#868686"/>
<path d="M175.87 27.6211V33.3717L175.332 33.8016H174.848V27.6211H175.87Z" fill="#868686"/>
<path d="M19.8461 43.2625V45.3585H18.8242V40.4141H22.2663V41.274H19.8461V42.4026H21.9974V43.2625H19.8461Z" fill="#868686"/>
<path d="M23.9876 43.2634V44.5533H26.6768V45.4132H23.0195V40.4688H26.5692V41.3286H24.0414V42.4573H26.3541V43.3172L23.9876 43.2634Z" fill="#868686"/>
<path d="M27.4824 45.4132V40.4688H29.4186C30.1178 40.4688 30.6556 40.63 30.9783 41.0599C31.3548 41.5436 31.5699 42.1885 31.5699 42.941C31.5699 43.6934 31.3548 44.3383 30.9783 44.822C30.6556 45.1982 30.1178 45.4132 29.4186 45.4132H27.4824ZM28.4505 44.5533H29.3648C30.1178 44.5533 30.4943 44.0158 30.4943 42.941C30.4943 41.8661 30.1178 41.3286 29.3648 41.3286H28.4505V44.5533Z" fill="#868686"/>
<path d="M33.345 43.2634V44.5533H36.0342V45.4132H32.377V40.4688H35.9266V41.3286H33.345V42.4573H35.7115V43.3172L33.345 43.2634Z" fill="#868686"/>
<path d="M37.809 43.4237V45.3585H36.7871V40.4141H39.4225C39.8527 40.4141 40.1754 40.5216 40.3906 40.7365C40.6595 41.0052 40.7671 41.3277 40.7671 41.7039C40.7671 42.2951 40.4981 42.725 39.9065 42.94C40.2292 43.0475 40.3906 43.2087 40.4981 43.4237C40.5519 43.5312 40.6057 44.0149 40.6057 44.7673C40.6057 44.9285 40.6595 45.0898 40.8208 45.1435V45.3047H39.7452C39.6376 45.1435 39.5838 44.821 39.5838 44.4448C39.5838 44.3374 39.5838 44.2299 39.5838 44.1224V43.9074C39.5838 43.5312 39.3687 43.3162 38.9384 43.3162L37.809 43.4237ZM37.809 42.6176H39.046C39.3149 42.6176 39.4763 42.5638 39.5838 42.5101C39.6914 42.4026 39.7452 42.2414 39.7452 41.9726C39.7452 41.7039 39.6914 41.5427 39.5838 41.4889C39.4763 41.3814 39.3149 41.3815 39.046 41.3815H37.809V42.6176Z" fill="#868686"/>
<path d="M44.5326 44.3911H42.704L42.3813 45.3585H41.3594L43.0804 40.4141H44.2099L45.9309 45.3585H44.9091L44.5326 44.3911ZM44.2637 43.5312L43.6183 41.5964L42.9729 43.5312H44.2637Z" fill="#868686"/>
<path d="M47.5434 40.4688V44.5533H49.9098V45.4132H46.5215V40.4688H47.5434Z" fill="#868686"/>
<path d="M56.0412 42.7241V45.4113H55.4496L55.342 44.7126C54.9656 45.2501 54.4815 45.465 53.8361 45.465C53.1369 45.465 52.5453 45.1963 52.1151 44.6589C51.7386 44.1752 51.5234 43.6377 51.5234 42.9391C51.5234 42.1329 51.7923 41.488 52.2764 41.0043C52.7067 40.5744 53.2445 40.3594 53.9437 40.3594C54.6429 40.3594 55.0731 40.5206 55.5034 40.8431C55.8261 41.1118 56.0412 41.488 56.095 41.9717H55.1269C54.9656 41.488 54.5353 41.2193 53.9437 41.2193C53.5134 41.2193 53.1369 41.3805 52.868 41.703C52.6529 41.9717 52.5453 42.4016 52.5453 42.8853C52.5453 43.4228 52.7067 43.8527 52.9756 44.1752C53.2445 44.4439 53.5672 44.6051 53.9437 44.6051C54.3739 44.6051 54.6966 44.4439 54.9655 44.1752C55.0731 44.0139 55.1807 43.799 55.1807 43.584H54.0512V42.7241C54.105 42.7241 56.0412 42.7241 56.0412 42.7241Z" fill="#868686"/>
<path d="M58.0316 43.2634V44.5533H60.7208V45.4132H57.0098V40.4688H60.5594V41.3286H58.0316V42.4573H60.3981V43.3172L58.0316 43.2634Z" fill="#868686"/>
<path d="M63.6243 40.4141C64.3234 40.4141 64.8613 40.629 65.2915 41.059C65.7218 41.5427 65.9907 42.1876 65.9907 42.94C65.9907 43.6924 65.7756 44.3374 65.2915 44.8211C64.8613 45.251 64.3234 45.466 63.6243 45.466C62.9251 45.466 62.3335 45.251 61.957 44.8211C61.5267 44.3374 61.2578 43.6924 61.2578 42.94C61.2578 42.1876 61.4729 41.5427 61.957 41.059C62.3873 40.629 62.9251 40.4141 63.6243 40.4141ZM63.6243 41.274C63.194 41.274 62.8175 41.4352 62.6024 41.8114C62.3873 42.1339 62.2797 42.5101 62.2797 42.9938C62.2797 43.5312 62.441 43.9612 62.71 44.2836C62.9251 44.5523 63.2478 44.6598 63.678 44.6598C64.1083 44.6598 64.4848 44.4986 64.6999 44.1224C64.9151 43.7999 65.0226 43.4237 65.0226 42.94C65.0226 42.4026 64.8613 41.9726 64.5924 41.6502C64.3234 41.3815 64.0545 41.274 63.6243 41.274Z" fill="#868686"/>
<path d="M71.1009 42.7241V45.4113H70.4555L70.3479 44.7126C69.9714 45.2501 69.4874 45.465 68.842 45.465C68.089 45.465 67.5512 45.1963 67.1209 44.6589C66.7444 44.1752 66.5293 43.6377 66.5293 42.9391C66.5293 42.1329 66.7982 41.488 67.2823 41.0043C67.7125 40.5744 68.2504 40.3594 68.9495 40.3594C69.6487 40.3594 70.079 40.5206 70.5092 40.8431C70.8319 41.1118 71.0471 41.488 71.1009 41.9717H70.1328C69.9176 41.488 69.5411 41.2193 68.9495 41.2193C68.4655 41.2193 68.1428 41.3805 67.8739 41.703C67.6587 41.9717 67.5512 42.4016 67.5512 42.8853C67.5512 43.4228 67.7125 43.8527 67.9814 44.1752C68.2504 44.4439 68.5731 44.6051 68.9495 44.6051C69.3798 44.6051 69.7025 44.4439 69.9714 44.1752C70.079 44.0139 70.1865 43.799 70.1865 43.584H69.0571V42.7241H71.1009Z" fill="#868686"/>
<path d="M73.0365 43.4237V45.3585H72.0684V40.4141H74.7037C75.134 40.4141 75.4567 40.5216 75.6718 40.7365C75.9407 41.0052 76.0483 41.3277 76.0483 41.7039C76.0483 42.2951 75.7794 42.725 75.1878 42.94C75.5105 43.0475 75.6718 43.2087 75.7794 43.4237C75.8332 43.5312 75.887 44.0149 75.887 44.7673C75.887 44.9285 75.9407 45.0898 76.1021 45.1435V45.3047H75.0264C74.9189 45.1435 74.8651 44.821 74.8651 44.4448C74.8651 44.3374 74.8651 44.2299 74.8651 44.1224V43.9074C74.8651 43.5312 74.6499 43.3162 74.2197 43.3162L73.0365 43.4237ZM73.0365 42.6176H74.2735C74.5424 42.6176 74.7037 42.5638 74.8113 42.5101C74.9189 42.4026 74.9726 42.2414 74.9726 41.9726C74.9726 41.7039 74.9189 41.5427 74.8113 41.4889C74.7037 41.3814 74.5424 41.3815 74.2735 41.3815H73.0365V42.6176Z" fill="#868686"/>
<path d="M79.7591 44.3911H77.9305L77.6078 45.3585H76.5859L78.307 40.4141H79.4364L81.1575 45.3585H80.1356L79.7591 44.3911ZM79.4902 43.5312L78.8448 41.5964L78.1994 43.5312H79.4902Z" fill="#868686"/>
<path d="M82.7719 43.6396V45.4132H81.75V40.4688H83.9013C84.4392 40.4688 84.8694 40.63 85.1383 40.8987C85.3535 41.1674 85.5148 41.5436 85.5148 41.9736C85.5148 42.511 85.3535 42.941 85.0845 43.2097C84.8156 43.4784 84.4929 43.5859 84.0627 43.5859L82.7719 43.6396ZM82.7719 42.7797H83.74C84.2778 42.7797 84.5467 42.511 84.5467 42.0273C84.5467 41.5436 84.2778 41.2749 83.74 41.2749H82.7719V42.7797Z" fill="#868686"/>
<path d="M89.2256 43.1559H87.2895V45.4132H86.2676V40.4688H87.2895V42.296H89.2256V40.4688H90.2475V45.4132H89.2256V43.1559Z" fill="#868686"/>
<path d="M92.2914 40.4688V45.4132H91.2695V40.4688H92.2914Z" fill="#868686"/>
<path d="M97.3467 42.1339H96.3786C96.271 41.5427 95.8945 41.274 95.3567 41.274C94.9264 41.274 94.6037 41.4352 94.3886 41.7577C94.1735 42.0801 94.0659 42.4563 94.0659 42.94C94.0659 43.4775 94.1735 43.9074 94.4424 44.2299C94.6575 44.4986 94.9264 44.6061 95.3029 44.6061C95.6256 44.6061 95.8945 44.4986 96.0559 44.3374C96.2172 44.1761 96.3786 43.9074 96.3786 43.6387H97.3467C97.2929 44.2299 97.0777 44.7136 96.6475 45.036C96.271 45.3047 95.787 45.466 95.2491 45.466C94.4962 45.466 93.9583 45.1973 93.5281 44.7136C93.2054 44.2836 92.9902 43.6924 92.9902 42.94C92.9902 42.0801 93.2054 41.4352 93.6894 41.0052C94.0659 40.5753 94.6037 40.4141 95.2491 40.4141C96.0021 40.4141 96.5937 40.6828 96.9702 41.1665C97.2391 41.4352 97.3467 41.7577 97.3467 42.1339Z" fill="#868686"/>
<path d="M100.412 40.4688V45.4132H99.3906V40.4688H100.412Z" fill="#868686"/>
<path d="M104.445 45.4132L102.455 42.0273V45.4132H101.434V40.4688H102.455L104.392 43.8009V40.4688H105.414V45.4132H104.445Z" fill="#868686"/>
<path d="M107.457 43.2625V45.3585H106.436V40.4141H109.878V41.274H107.404V42.4026H109.555V43.2625H107.457Z" fill="#868686"/>
<path d="M112.728 40.4141C113.427 40.4141 113.965 40.629 114.395 41.059C114.879 41.5427 115.094 42.1876 115.094 42.94C115.094 43.6924 114.879 44.3374 114.395 44.8211C113.965 45.251 113.427 45.466 112.728 45.466C112.029 45.466 111.437 45.251 111.061 44.8211C110.576 44.3374 110.361 43.6924 110.361 42.94C110.361 42.1876 110.576 41.5427 111.061 41.059C111.437 40.629 112.029 40.4141 112.728 40.4141ZM112.728 41.274C112.298 41.274 111.921 41.4352 111.706 41.8114C111.491 42.1339 111.383 42.5101 111.383 42.9938C111.383 43.5312 111.545 43.9612 111.813 44.2836C112.029 44.5523 112.351 44.6598 112.782 44.6598C113.212 44.6598 113.588 44.4986 113.803 44.1224C114.019 43.7999 114.126 43.4237 114.126 42.94C114.126 42.4026 113.965 41.9726 113.696 41.6502C113.427 41.3815 113.104 41.274 112.728 41.274Z" fill="#868686"/>
<path d="M116.87 43.4237V45.3585H115.848V40.4141H118.483C118.913 40.4141 119.236 40.5216 119.451 40.7365C119.72 41.0052 119.828 41.3277 119.828 41.7039C119.828 42.2951 119.559 42.725 118.967 42.94C119.29 43.0475 119.451 43.2087 119.559 43.4237C119.612 43.5312 119.666 44.0149 119.666 44.7673C119.666 44.9285 119.72 45.0898 119.881 45.1435V45.3047H118.806C118.698 45.1435 118.644 44.821 118.644 44.4448C118.644 44.3374 118.644 44.2299 118.644 44.1224V43.9074C118.644 43.5312 118.429 43.3162 117.999 43.3162L116.87 43.4237ZM116.87 42.6176H118.107C118.375 42.6176 118.537 42.5638 118.644 42.5101C118.752 42.4026 118.806 42.2414 118.806 41.9726C118.806 41.7039 118.752 41.5427 118.644 41.4889C118.537 41.3814 118.375 41.3815 118.107 41.3815H116.87V42.6176Z" fill="#868686"/>
<path d="M121.711 41.5427V45.3585H120.689V40.4141H122.195L123.11 44.3374L123.97 40.4141H125.476V45.3585H124.454V41.5427L123.594 45.3585H122.626L121.711 41.5427Z" fill="#868686"/>
<path d="M129.402 44.3911H127.573L127.25 45.3585H126.229L127.95 40.4141H129.079L130.8 45.3585H129.778L129.402 44.3911ZM129.133 43.5312L128.487 41.5964L127.842 43.5312H129.133Z" fill="#868686"/>
<path d="M133.489 41.3286V45.4132H132.467V41.3286H130.961V40.4688H134.887V41.3286H133.489Z" fill="#868686"/>
<path d="M136.555 40.4688V45.4132H135.533V40.4688H136.555Z" fill="#868686"/>
<path d="M139.728 40.4141C140.427 40.4141 140.965 40.629 141.395 41.059C141.879 41.5427 142.094 42.1876 142.094 42.94C142.094 43.6924 141.879 44.3374 141.395 44.8211C140.965 45.251 140.427 45.466 139.728 45.466C139.029 45.466 138.437 45.251 138.061 44.8211C137.576 44.3374 137.361 43.6924 137.361 42.94C137.361 42.1876 137.576 41.5427 138.061 41.059C138.437 40.629 139.029 40.4141 139.728 40.4141ZM139.728 41.274C139.298 41.274 138.921 41.4352 138.706 41.8114C138.491 42.1339 138.383 42.5101 138.383 42.9938C138.383 43.5312 138.545 43.9612 138.813 44.2836C139.082 44.5523 139.351 44.6598 139.782 44.6598C140.212 44.6598 140.588 44.4986 140.803 44.1224C141.019 43.7999 141.126 43.4237 141.126 42.94C141.126 42.4026 140.965 41.9726 140.696 41.6502C140.373 41.3815 140.104 41.274 139.728 41.274Z" fill="#868686"/>
<path d="M145.86 45.4132L143.87 42.0273V45.4132H142.848V40.4688H143.87L145.806 43.8009V40.4688H146.828V45.4132H145.86Z" fill="#868686"/>
<path d="M153.228 42.1339H152.259C152.152 41.5427 151.775 41.274 151.184 41.274C150.754 41.274 150.431 41.4352 150.216 41.7577C150.001 42.0801 149.947 42.4563 149.947 42.94C149.947 43.4775 150.054 43.9074 150.323 44.2299C150.538 44.4986 150.807 44.6061 151.184 44.6061C151.506 44.6061 151.775 44.4986 151.937 44.3374C152.098 44.1761 152.206 43.9074 152.259 43.6387H153.228C153.174 44.2299 152.959 44.7136 152.528 45.036C152.152 45.3047 151.722 45.466 151.13 45.466C150.377 45.466 149.839 45.1973 149.409 44.7136C149.086 44.2836 148.871 43.6924 148.871 42.94C148.871 42.0801 149.086 41.4352 149.57 41.0052C149.947 40.5753 150.485 40.4141 151.13 40.4141C151.883 40.4141 152.475 40.6828 152.851 41.1665C153.066 41.4352 153.174 41.7577 153.228 42.1339Z" fill="#868686"/>
<path d="M155.001 43.2634V44.5533H157.69V45.4132H154.033V40.4688H157.583V41.3286H155.055V42.4573H157.422V43.3172L155.001 43.2634Z" fill="#868686"/>
<path d="M161.457 45.4132L159.467 42.0273V45.4132H158.445V40.4688H159.467L161.403 43.8009V40.4688H162.425V45.4132H161.457Z" fill="#868686"/>
<path d="M165.598 41.3286V45.4132H164.576V41.3286H163.07V40.4688H166.996V41.3286H165.598Z" fill="#868686"/>
<path d="M168.663 43.2634V44.5533H171.353V45.4132H167.695V40.4688H171.245V41.3286H168.717V42.4573H171.084V43.3172L168.663 43.2634Z" fill="#868686"/>
<path d="M173.127 43.4237V45.3585H172.105V40.4141H174.741C175.171 40.4141 175.494 40.5216 175.709 40.7365C175.978 41.0052 176.085 41.3277 176.085 41.7039C176.085 42.2951 175.816 42.725 175.225 42.94C175.548 43.0475 175.763 43.2087 175.816 43.4237C175.87 43.5312 175.924 44.0149 175.924 44.7673C175.924 44.9285 175.978 45.0898 176.139 45.1435V45.3047H175.064C174.956 45.1435 174.902 44.821 174.902 44.4448C174.902 44.3374 174.902 44.2299 174.902 44.1224V43.9074C174.902 43.5312 174.687 43.3162 174.257 43.3162L173.127 43.4237ZM173.127 42.6176H174.364C174.633 42.6176 174.795 42.5638 174.902 42.5101C175.01 42.4026 175.064 42.2414 175.064 41.9726C175.064 41.7039 175.01 41.5427 174.902 41.4889C174.795 41.3814 174.633 41.3815 174.364 41.3815H173.127V42.6176Z" fill="#868686"/>
</g>
<defs>
<clipPath id="clip0_87_20394">
<rect width="177" height="71.5867" fill="white"/>
</clipPath>
</defs>
</svg>
