<svg width="100" height="41" viewBox="0 0 100 41" fill="none" xmlns="http://www.w3.org/2000/svg">
<g clip-path="url(#clip0_1_357)">
<path d="M40.1393 40.416H0.0910877L0 0.154297H24.2597V3.94684H3.82568L3.88641 36.6234H36.344V29.8879H40.1393V40.416Z" fill="#EC6E3C"/>
<path d="M40.2908 10.6225H36.3437V3.94767H29.0566V0.00341797H40.2908V10.6225Z" fill="#F7C5B1"/>
<path d="M12.2053 16.689V18.3881C12.2053 18.4184 12.2053 18.4488 12.2356 18.4791C12.266 18.5094 12.2964 18.5094 12.2964 18.5094H12.4482V18.9949H12.1446C11.9927 18.9949 11.8713 18.9342 11.7498 18.8128C11.5677 18.9645 11.3855 19.0252 11.1426 19.0252C10.8997 19.0252 10.6872 18.9342 10.505 18.7825C10.2621 18.5701 10.1406 18.2667 10.1406 17.8723C10.1406 17.5386 10.2621 17.2351 10.4746 17.0228C10.6872 16.8104 10.9301 16.7194 11.2033 16.7194C11.3551 16.7194 11.5373 16.7497 11.6891 16.8104L11.9017 16.6587C11.932 16.689 12.2053 16.689 12.2053 16.689ZM11.6284 17.2958C11.5069 17.2655 11.4159 17.2351 11.3248 17.2351C11.1426 17.2351 11.0211 17.2958 10.8997 17.4172C10.7782 17.5386 10.7479 17.6903 10.7479 17.9026C10.7479 18.115 10.8086 18.2667 10.8997 18.3881C10.9908 18.5094 11.1426 18.5701 11.2944 18.5701C11.4159 18.5701 11.5373 18.5398 11.6588 18.5094V17.2958H11.6284ZM11.173 15.7788C11.264 15.7788 11.3248 15.8091 11.3855 15.8698C11.4462 15.9305 11.4766 15.9912 11.4766 16.0822C11.4766 16.1732 11.4462 16.2339 11.3855 16.2946C11.3248 16.3553 11.264 16.3856 11.173 16.3856C11.0819 16.3856 11.0211 16.3553 10.9604 16.2946C10.8997 16.2339 10.8693 16.1732 10.8693 16.0822C10.8693 15.9912 10.8997 15.9305 10.9604 15.8698C11.0211 15.8091 11.1122 15.7788 11.173 15.7788ZM11.9017 15.7788C11.9927 15.7788 12.0535 15.8091 12.1142 15.8698C12.1749 15.9305 12.2053 15.9912 12.2053 16.0822C12.2053 16.1732 12.1749 16.2339 12.1142 16.2946C12.0535 16.3553 11.9927 16.3856 11.9017 16.3856C11.8106 16.3856 11.7498 16.3553 11.6891 16.2946C11.6284 16.2339 11.598 16.1732 11.598 16.0822C11.598 15.9912 11.6284 15.9305 11.6891 15.8698C11.7498 15.8091 11.8106 15.7788 11.9017 15.7788Z" fill="#868686"/>
<path d="M13.8146 16.8086V18.5077H14.0575V18.9931H13.9057L13.7236 18.8111C13.6325 18.9324 13.4807 18.9931 13.3288 18.9931H12.418V18.5077H13.1163C13.177 18.5077 13.177 18.5077 13.2074 18.4773C13.2378 18.447 13.2378 18.4166 13.2378 18.3863V16.8389L13.8146 16.8086ZM12.8127 19.3268C12.9038 19.3268 12.9645 19.3572 13.0252 19.4179C13.0859 19.4785 13.1163 19.5392 13.1163 19.6302C13.1163 19.7213 13.0859 19.782 13.0252 19.8426C12.9645 19.9033 12.9038 19.9337 12.8127 19.9337C12.7216 19.9337 12.6609 19.9033 12.6001 19.8426C12.5394 19.782 12.5091 19.7213 12.5091 19.6302C12.5091 19.5392 12.5394 19.4785 12.6001 19.4179C12.6609 19.3572 12.7216 19.3268 12.8127 19.3268ZM13.511 19.3268C13.6021 19.3268 13.6628 19.3572 13.7236 19.4179C13.7843 19.4785 13.8146 19.5392 13.8146 19.6302C13.8146 19.7213 13.7843 19.782 13.7236 19.8426C13.6628 19.9033 13.6021 19.9337 13.511 19.9337C13.4199 19.9337 13.3592 19.9033 13.2985 19.8426C13.2378 19.782 13.2074 19.7213 13.2074 19.6302C13.2074 19.5392 13.2378 19.4785 13.2985 19.4179C13.3592 19.3572 13.4503 19.3268 13.511 19.3268Z" fill="#868686"/>
<path d="M14.9687 18.5094C14.9079 18.4184 14.8472 18.2971 14.7865 18.1757C14.7561 18.0543 14.7258 17.933 14.7258 17.8116C14.7258 17.5386 14.8169 17.2958 14.9687 17.1138C15.1812 16.8711 15.4545 16.7497 15.8188 16.7497C16.0921 16.7497 16.3046 16.8104 16.4868 16.9621C16.669 17.1138 16.7904 17.3565 16.7904 17.6296V18.4791C16.7904 18.6005 16.7601 18.7218 16.669 18.8128C16.5779 18.9342 16.4261 18.9949 16.2743 18.9949H13.9971V18.5094C14.0274 18.5094 14.9687 18.5094 14.9687 18.5094ZM16.2439 17.6296C16.2439 17.5082 16.1832 17.3868 16.1224 17.3262C16.0617 17.2655 15.9706 17.2351 15.8795 17.2351C15.667 17.2351 15.5152 17.3262 15.4241 17.4779C15.3634 17.5689 15.333 17.7206 15.333 17.8723C15.333 18.0847 15.3937 18.2364 15.5456 18.3577C15.6366 18.4488 15.7885 18.5094 15.9706 18.5094H16.1528C16.2439 18.5094 16.2743 18.4791 16.2743 18.3881L16.2439 17.6296ZM15.8492 15.7788C15.9403 15.7788 16.001 15.8091 16.0617 15.8698C16.1225 15.9305 16.1528 15.9912 16.1528 16.0822C16.1528 16.1732 16.1225 16.2339 16.0617 16.2946C16.001 16.3553 15.9403 16.3856 15.8492 16.3856C15.7581 16.3856 15.6974 16.3553 15.6366 16.2946C15.5759 16.2339 15.5456 16.1732 15.5456 16.0822C15.5456 15.9912 15.5759 15.9305 15.6366 15.8698C15.6974 15.8091 15.7885 15.7788 15.8492 15.7788Z" fill="#868686"/>
<path d="M17.9744 15.5957V18.8421L17.6707 19.0848H17.3975V15.5957H17.9744Z" fill="#868686"/>
<path d="M19.6134 16.8086V18.5077H19.8563V18.9931H19.6134C19.583 19.3572 19.4312 19.6606 19.158 19.873C18.9151 20.055 18.6418 20.1157 18.3078 20.1157C18.2471 20.1157 18.1863 20.1157 18.1256 20.1157L17.9131 19.8123V19.5999C18.0042 19.6302 18.1256 19.6302 18.2167 19.6302C18.7632 19.6302 19.0365 19.3572 19.0365 18.8111V16.8086H19.6134Z" fill="#868686"/>
<path d="M20.4639 17.6296C20.555 17.3262 20.7675 17.0834 21.0408 16.9317C21.2533 16.8104 21.4658 16.7497 21.7087 16.7497C21.9516 16.7497 22.1945 16.8104 22.3767 16.9621C22.6196 17.1138 22.8018 17.3565 22.9232 17.6296L22.8625 17.7509C22.7411 17.8116 22.6196 17.9026 22.4678 18.0543C22.3464 18.206 22.2553 18.3577 22.2249 18.4791H22.984V18.9645H21.9516C21.8606 18.9645 21.7695 18.9342 21.7087 18.8432H21.6784C21.6177 18.9342 21.5266 18.9645 21.4355 18.9645H19.7959V18.5094H21.1622C21.1319 18.3881 21.0408 18.2364 20.9193 18.115C20.7979 17.9633 20.6461 17.8723 20.4942 17.8116L20.4639 17.6296ZM22.3464 17.5992C22.2856 17.4779 22.1642 17.3565 22.0427 17.2958C21.9516 17.2351 21.8302 17.2351 21.7087 17.2351C21.5873 17.2351 21.4658 17.2655 21.3444 17.3262C21.2229 17.3868 21.1319 17.4779 21.0408 17.5992C21.1319 17.6599 21.2533 17.7509 21.3748 17.8723C21.4962 18.024 21.6177 18.1757 21.6784 18.3577H21.7087C21.7695 18.1757 21.8606 18.024 22.0124 17.842C22.1642 17.7206 22.2553 17.6599 22.3464 17.5992ZM21.7087 15.7788C21.7998 15.7788 21.8606 15.8091 21.9213 15.8698C21.982 15.9305 22.0124 15.9912 22.0124 16.0822C22.0124 16.1732 21.982 16.2339 21.9213 16.2946C21.8606 16.3553 21.7998 16.3856 21.7087 16.3856C21.6177 16.3856 21.5569 16.3553 21.4962 16.2946C21.4355 16.2339 21.4051 16.1732 21.4051 16.0822C21.4051 15.9912 21.4355 15.9305 21.4962 15.8698C21.5569 15.8091 21.648 15.7788 21.7087 15.7788Z" fill="#868686"/>
<path d="M23.8346 18.5088V18.9942H22.9541V18.5088H23.8346Z" fill="#868686"/>
<path d="M24.6842 18.5088V18.9942H23.8037V18.5088H24.6842Z" fill="#868686"/>
<path d="M25.5348 18.5088V18.9942H24.6543V18.5088H25.5348Z" fill="#868686"/>
<path d="M26.3541 18.5088V18.9942H25.5039V18.5088H26.3541Z" fill="#868686"/>
<path d="M27.2047 18.5088V18.9942H26.3242V18.5088H27.2047Z" fill="#868686"/>
<path d="M28.0543 18.5088V18.9942H27.1738V18.5088H28.0543Z" fill="#868686"/>
<path d="M28.8747 18.5088V18.9942H27.9941V18.5088H28.8747Z" fill="#868686"/>
<path d="M29.7243 18.5088V18.9942H28.8438V18.5088H29.7243Z" fill="#868686"/>
<path d="M30.5446 18.5088V18.9942H29.6641V18.5088H30.5446Z" fill="#868686"/>
<path d="M31.3942 18.5088V18.9942H30.5137V18.5088H31.3942Z" fill="#868686"/>
<path d="M31.9715 16.9002C32.2751 16.8092 32.5484 16.7485 32.7913 16.7485C33.1556 16.7485 33.4896 16.8699 33.7022 17.1126C33.9147 17.325 34.0058 17.5981 34.0058 17.9318V18.5083H34.1576V18.9937H34.0665L33.9147 18.8117C33.8236 18.933 33.6718 18.9937 33.52 18.9937H31.3643V18.5083H33.3378C33.4289 18.5083 33.4593 18.4779 33.4593 18.3869V17.9622C33.4593 17.7498 33.3985 17.5677 33.2467 17.4464C33.0949 17.325 32.9127 17.2643 32.7002 17.2643C32.5484 17.2643 32.3055 17.2947 32.0019 17.3553L31.9715 16.9002ZM32.6395 19.3275C32.7306 19.3275 32.7913 19.3578 32.852 19.4185C32.9127 19.4792 32.9431 19.5398 32.9431 19.6309C32.9431 19.7219 32.9127 19.7826 32.852 19.8433C32.7913 19.9039 32.7306 19.9343 32.6395 19.9343C32.5484 19.9343 32.4877 19.9039 32.4269 19.8433C32.3662 19.7826 32.3359 19.7219 32.3359 19.6309C32.3359 19.5398 32.3662 19.4792 32.4269 19.4185C32.4877 19.3578 32.5484 19.3275 32.6395 19.3275Z" fill="#868686"/>
<path d="M35.5843 15.5957V18.4477C35.5843 18.5691 35.5539 18.6904 35.4628 18.7814C35.3717 18.9028 35.2503 18.9635 35.0681 18.9635H34.1572V18.5084H34.8859C34.9163 18.5084 34.9467 18.5084 34.977 18.478C35.0074 18.4477 35.0074 18.4174 35.0074 18.387V15.626L35.5843 15.5957Z" fill="#868686"/>
<path d="M36.7986 15.5957V18.8421L36.4949 19.0848H36.2217V15.5957H36.7986Z" fill="#868686"/>
<path d="M42.2949 16.8113V18.4497C42.2949 18.571 42.2645 18.6924 42.1734 18.7834C42.0823 18.9048 41.9305 18.9655 41.7787 18.9655H39.1372C38.9246 18.9655 38.7728 18.9048 38.621 18.7531C38.4388 18.6014 38.3174 18.3587 38.3174 18.1159V17.3574L38.621 17.1147H38.8943V18.0856C38.8943 18.207 38.9246 18.298 39.0157 18.3587C39.0764 18.4193 39.1675 18.4497 39.2586 18.4497H41.5965C41.6876 18.4497 41.718 18.4193 41.718 18.3283V16.7506H42.2949V16.8113ZM39.957 16.6899C40.0481 16.6899 40.1088 16.7203 40.1695 16.781C40.2302 16.8416 40.2606 16.9023 40.2606 16.9933C40.2606 17.0844 40.2302 17.145 40.1695 17.2057C40.1088 17.2664 40.0481 17.2967 39.957 17.2967C39.8659 17.2967 39.8051 17.2664 39.7444 17.2057C39.6837 17.145 39.6533 17.0844 39.6533 16.9933C39.6533 16.9023 39.6837 16.8416 39.7444 16.781C39.8051 16.7203 39.8659 16.6899 39.957 16.6899ZM40.6553 16.6899C40.7464 16.6899 40.8071 16.7203 40.8678 16.781C40.9286 16.8416 40.9589 16.9023 40.9589 16.9933C40.9589 17.0844 40.9286 17.145 40.8678 17.2057C40.8071 17.2664 40.7464 17.2967 40.6553 17.2967C40.5642 17.2967 40.5035 17.2664 40.4428 17.2057C40.382 17.145 40.3517 17.0844 40.3517 16.9933C40.3517 16.9023 40.382 16.8416 40.4428 16.781C40.5035 16.7203 40.5946 16.6899 40.6553 16.6899Z" fill="#868686"/>
<path d="M43.5095 15.5958V18.3568C43.5095 18.3872 43.5095 18.4175 43.5399 18.4175C43.5702 18.4478 43.6006 18.4478 43.631 18.4478H43.7524V18.9333H43.4488C43.3273 18.9333 43.2059 18.8726 43.1148 18.7816C42.9933 18.6906 42.9326 18.5389 42.9326 18.3872V15.5352H43.5095V15.5958Z" fill="#868686"/>
<path d="M44.5718 17.6283C44.5718 17.3249 44.6629 17.1126 44.8755 16.9609C45.0273 16.8395 45.2702 16.7788 45.5434 16.7788C45.8167 16.7788 46.0596 16.8698 46.2418 17.0215C46.4847 17.2339 46.6061 17.5373 46.6061 17.9014C46.6061 18.2655 46.515 18.5689 46.3329 18.7813C46.1507 19.024 45.9078 19.115 45.6042 19.115C45.3309 19.115 45.1487 19.024 44.9969 18.8116C44.9058 18.9026 44.7844 18.9633 44.6326 18.9633H43.7217V18.5082H44.4504C44.4807 18.5082 44.5111 18.5082 44.5415 18.4779C44.5718 18.4475 44.5718 18.4172 44.5718 18.3868V17.6283ZM45.1487 18.4475C45.2702 18.5689 45.3916 18.6296 45.5434 18.6296C45.6952 18.6296 45.8167 18.5689 45.9078 18.4475C45.9989 18.3262 46.0596 18.1441 46.0596 17.9317C46.0596 17.689 45.9989 17.5373 45.9078 17.3856C45.8167 17.2643 45.6952 17.2339 45.5434 17.2339C45.422 17.2339 45.3309 17.2643 45.2702 17.3553C45.2094 17.416 45.1487 17.507 45.1487 17.6283V18.4475Z" fill="#868686"/>
<path d="M48.1555 18.9634C47.8215 18.9634 47.5482 18.8421 47.3357 18.5994C47.1535 18.387 47.0928 18.1443 47.0928 17.8409C47.0928 17.4768 47.1839 17.2037 47.3964 17.0217C47.6089 16.8093 47.8822 16.7183 48.1858 16.7183C48.4287 16.7183 48.6109 16.7789 48.7931 16.9003C49.0056 17.052 49.1271 17.2947 49.1271 17.5981V18.5083H49.2789V18.9938H49.1271C49.0967 19.3275 48.9753 19.6006 48.7627 19.7826C48.6109 19.904 48.4287 20.0254 48.2162 20.0557C48.0644 20.086 47.9126 20.1164 47.7911 20.1164C47.7304 20.1164 47.6697 20.1164 47.5786 20.1164H47.5482L47.3053 19.813V19.6006C47.4268 19.6309 47.5482 19.6309 47.6697 19.6309C48.1858 19.6309 48.4591 19.4186 48.5198 18.9938L48.1555 18.9634ZM48.5502 17.6285C48.5502 17.5071 48.5198 17.4161 48.4287 17.3251C48.368 17.2644 48.2769 17.234 48.1858 17.234C48.034 17.234 47.9126 17.2947 47.7911 17.4161C47.6697 17.5375 47.6393 17.6892 47.6393 17.8712C47.6393 18.0532 47.7 18.2049 47.7911 18.3263C47.8822 18.4477 48.034 18.5083 48.2162 18.5083H48.5502V17.6285Z" fill="#868686"/>
<path d="M50.675 15.5957V18.5084H50.9179V18.9938H50.7661L50.5839 18.8118C50.4625 18.9331 50.341 18.9938 50.1892 18.9938H49.2783V18.5084H50.007C50.0374 18.5084 50.0677 18.5084 50.0981 18.478C50.1285 18.4477 50.1285 18.4174 50.1285 18.387V15.626L50.675 15.5957Z" fill="#868686"/>
<path d="M51.737 18.5088V18.9942H50.8564V18.5088H51.737Z" fill="#868686"/>
<path d="M52.5875 18.5088V18.9942H51.707V18.5088H52.5875Z" fill="#868686"/>
<path d="M53.4381 18.5088V18.9942H52.5576V18.5088H53.4381Z" fill="#868686"/>
<path d="M54.2575 18.5088V18.9942H53.377V18.5088H54.2575Z" fill="#868686"/>
<path d="M54.8956 17.6284C55.0171 17.325 55.1992 17.0823 55.4725 16.9306C55.685 16.8092 55.8976 16.7485 56.1405 16.7485C56.3834 16.7485 56.6263 16.8092 56.8084 16.9609C57.0513 17.1126 57.2335 17.3553 57.355 17.6284L57.2942 17.7498C57.1728 17.8104 57.021 17.9015 56.8995 18.0532C56.7781 18.2049 56.687 18.3566 56.6263 18.4779H57.3853V18.9634H56.353C56.2619 18.9634 56.1708 18.933 56.1101 18.842H56.0797C56.019 18.933 55.9279 18.9634 55.8368 18.9634H54.1973V18.5083H55.5636C55.5332 18.3869 55.4421 18.2352 55.3207 18.1139C55.1992 17.9622 55.0474 17.8711 54.8956 17.8104V17.6284ZM56.7781 17.5981C56.7174 17.4767 56.5959 17.3553 56.4745 17.2947C56.3834 17.234 56.2619 17.234 56.1405 17.234C56.019 17.234 55.8976 17.2643 55.7761 17.325C55.6547 17.3857 55.5636 17.4767 55.4725 17.5981C55.5939 17.6587 55.685 17.7498 55.8065 17.8711C55.9279 18.0228 56.0494 18.1745 56.1101 18.3566H56.1405C56.2012 18.1745 56.2923 18.0228 56.4441 17.8408C56.5655 17.7194 56.687 17.6587 56.7781 17.5981Z" fill="#868686"/>
<path d="M58.2348 18.5082C58.1741 18.3262 58.1134 18.1138 58.1134 17.9014C58.1134 17.5373 58.2348 17.2339 58.4474 17.0519C58.6295 16.8698 58.8724 16.7788 59.1761 16.7788C59.4493 16.7788 59.6619 16.8395 59.844 16.9609C60.0566 17.1126 60.1477 17.3553 60.1477 17.6283V18.3868C60.1477 18.4172 60.1477 18.4475 60.178 18.4779C60.2084 18.5082 60.2388 18.5082 60.2691 18.5082H60.2995V18.9937H60.1173C59.9655 18.9937 59.844 18.933 59.753 18.842C59.6011 19.024 59.3886 19.1454 59.1457 19.1454C58.8724 19.1454 58.6295 19.0543 58.4474 18.842L58.3259 18.9937H57.415V18.5082H58.2348ZM59.5708 17.6283C59.5708 17.507 59.5404 17.416 59.4493 17.3553C59.3886 17.2946 59.2975 17.2339 59.1761 17.2339C59.0243 17.2339 58.9028 17.2946 58.8117 17.416C58.7206 17.5373 58.6599 17.689 58.6599 17.9014C58.6599 18.1138 58.7206 18.2958 58.8117 18.4475C58.9028 18.5992 59.0243 18.6599 59.1761 18.6599C59.2975 18.6599 59.4493 18.5992 59.5708 18.4779V17.6283Z" fill="#868686"/>
<path d="M61.6965 15.5957V18.5084H61.9394V18.9938H61.7876L61.6054 18.8118C61.4839 18.9331 61.3625 18.9938 61.2107 18.9938H60.2998V18.5084H61.0285C61.0589 18.5084 61.0892 18.5084 61.1196 18.478C61.15 18.4477 61.15 18.4174 61.15 18.387V15.626L61.6965 15.5957Z" fill="#868686"/>
<path d="M63.3362 15.5957V18.4477C63.3362 18.5691 63.3059 18.6904 63.2148 18.7814C63.1237 18.9028 63.0022 18.9635 62.8201 18.9635H61.9092V18.5084H62.6379C62.6682 18.5084 62.6986 18.5084 62.729 18.478C62.7593 18.4477 62.7593 18.4174 62.7593 18.387V15.626L63.3362 15.5957Z" fill="#868686"/>
<path d="M65.4003 18.8117C65.4003 19.1152 65.4914 19.3275 65.6432 19.4489C65.795 19.5703 66.0683 19.6309 66.463 19.6309C67.0702 19.6309 67.3739 19.4792 67.3739 19.1455C67.3739 19.0241 67.3435 18.9331 67.2524 18.8724C67.1613 18.8117 67.0399 18.7511 66.8274 18.66C66.5237 18.569 66.3112 18.4477 66.1897 18.296C66.0683 18.1443 65.9772 17.9319 65.9772 17.6892C65.9772 17.3554 66.0986 17.1127 66.2808 16.9306C66.463 16.7789 66.7059 16.7183 66.9792 16.7183C67.1613 16.7183 67.3435 16.7486 67.5257 16.8093V17.234C67.3435 17.1734 67.1917 17.1734 67.0702 17.1734C66.8881 17.1734 66.7363 17.234 66.6452 17.3251C66.5541 17.4161 66.4934 17.5375 66.4934 17.6892C66.4934 17.8105 66.5237 17.9319 66.6148 17.9926C66.7059 18.0532 66.8273 18.1443 67.0702 18.2049C67.3435 18.296 67.556 18.4173 67.6775 18.5387C67.8293 18.6904 67.89 18.8724 67.89 19.0848C67.89 19.4489 67.7382 19.6916 67.4042 19.8737C67.1917 19.995 66.8881 20.0557 66.5541 20.0557H66.0986C65.7343 20.0557 65.4307 19.9647 65.1878 19.7826C64.8841 19.5703 64.7627 19.2365 64.7627 18.8117V18.3263L65.0663 18.0836H65.3396L65.4003 18.8117ZM66.0379 20.3591C66.129 20.3591 66.1897 20.3894 66.2505 20.4501C66.3112 20.5108 66.3415 20.5715 66.3415 20.6625C66.3415 20.7535 66.3112 20.8142 66.2505 20.8749C66.1897 20.9356 66.129 20.9659 66.0379 20.9659C65.9468 20.9659 65.8861 20.9356 65.8254 20.8749C65.7647 20.8142 65.7343 20.7535 65.7343 20.6625C65.7343 20.5715 65.7647 20.5108 65.8254 20.4501C65.8861 20.3894 65.9468 20.3591 66.0379 20.3591ZM66.7666 20.3591C66.8577 20.3591 66.9184 20.3894 66.9792 20.4501C67.0399 20.5108 67.0702 20.5715 67.0702 20.6625C67.0702 20.7535 67.0399 20.8142 66.9792 20.8749C66.9184 20.9356 66.8577 20.9659 66.7666 20.9659C66.6755 20.9659 66.6148 20.9356 66.5541 20.8749C66.4934 20.8142 66.463 20.7535 66.463 20.6625C66.463 20.5715 66.4934 20.5108 66.5541 20.4501C66.6148 20.3894 66.6755 20.3591 66.7666 20.3591Z" fill="#868686"/>
<path d="M68.8324 16.7789C68.9538 16.7485 69.0753 16.7485 69.1967 16.7485C69.5611 16.7485 69.8344 16.8699 70.0773 17.1126C70.2594 17.325 70.3809 17.5677 70.3809 17.9015V18.4779C70.3809 18.6296 70.3202 18.751 70.2291 18.842C70.138 18.933 70.0165 18.9937 69.8951 18.9937H68.377V18.5083H69.7129C69.804 18.5083 69.8344 18.4779 69.8344 18.3869V17.9622C69.8344 17.7498 69.7736 17.5677 69.6522 17.4464C69.5307 17.325 69.3486 17.2643 69.1057 17.234C68.9842 17.234 68.9235 17.234 68.8628 17.2643L68.8324 16.7789Z" fill="#868686"/>
<path d="M71.5642 15.5958V18.3568C71.5642 18.3872 71.5642 18.4175 71.5946 18.4175C71.6249 18.4478 71.6553 18.4478 71.6856 18.4478H71.8071V18.9333H71.5035C71.382 18.9333 71.2606 18.8726 71.1695 18.7816C71.048 18.6906 70.9873 18.5389 70.9873 18.3872V15.5352H71.5642V15.5958Z" fill="#868686"/>
<path d="M72.6276 18.5088V18.9942H71.7471V18.5088H72.6276Z" fill="#868686"/>
<path d="M73.4772 18.5088V18.9942H72.5967V18.5088H73.4772Z" fill="#868686"/>
<path d="M74.3278 18.5088V18.9942H73.4473V18.5088H74.3278Z" fill="#868686"/>
<path d="M74.9041 16.9002C75.2078 16.8092 75.481 16.7485 75.7239 16.7485C76.0883 16.7485 76.4223 16.8699 76.6348 17.1126C76.8473 17.325 76.9384 17.5981 76.9384 17.9318V18.5083H77.0902V18.9937H76.9991L76.8473 18.8117C76.7259 18.933 76.6044 18.9937 76.4526 18.9937H74.2969V18.5083H76.2704C76.3615 18.5083 76.3919 18.4779 76.3919 18.3869V17.9622C76.3919 17.7498 76.3312 17.5677 76.1794 17.4464C76.0275 17.325 75.8454 17.2643 75.6025 17.2643C75.4507 17.2643 75.2078 17.2947 74.9041 17.3553V16.9002Z" fill="#868686"/>
<path d="M78.4876 16.8104V18.4488C78.4876 18.5701 78.4572 18.6915 78.3661 18.7825C78.2751 18.9039 78.1232 18.9645 77.9714 18.9645H77.0605V18.5094H77.7893C77.8196 18.5094 77.85 18.5094 77.8803 18.4791C77.9107 18.4488 77.9107 18.4184 77.9107 18.3881V16.8104H78.4876ZM77.516 15.7788C77.6071 15.7788 77.6678 15.8091 77.7285 15.8698C77.7892 15.9305 77.8196 15.9912 77.8196 16.0822C77.8196 16.1732 77.7892 16.2339 77.7285 16.2946C77.6678 16.3553 77.6071 16.3856 77.516 16.3856C77.4249 16.3856 77.3642 16.3553 77.3034 16.2946C77.2427 16.2339 77.2124 16.1732 77.2124 16.0822C77.2124 15.9912 77.2427 15.9305 77.3034 15.8698C77.3642 15.8091 77.4553 15.7788 77.516 15.7788ZM78.2447 15.7788C78.3358 15.7788 78.3965 15.8091 78.4572 15.8698C78.5179 15.9305 78.5483 15.9912 78.5483 16.0822C78.5483 16.1732 78.5179 16.2339 78.4572 16.2946C78.3965 16.3553 78.3358 16.3856 78.2447 16.3856C78.1536 16.3856 78.0929 16.3553 78.0321 16.2946C77.9714 16.2339 77.9411 16.1732 77.9411 16.0822C77.9411 15.9912 77.9714 15.9305 78.0321 15.8698C78.0929 15.8091 78.1536 15.7788 78.2447 15.7788Z" fill="#868686"/>
<path d="M81.6747 15.5957V18.4477C81.6747 18.5691 81.6443 18.6904 81.5532 18.7814C81.4621 18.9028 81.3103 18.9635 81.1889 18.9635H79.3064L79.0635 18.6601V18.5084H80.2173L79.4278 16.2025H79.9744L80.7638 18.5084H81.0067C81.037 18.5084 81.0674 18.5084 81.0978 18.478C81.0978 18.4477 81.1281 18.4174 81.1281 18.387V15.626L81.6747 15.5957ZM80.3994 20.1468C80.3387 20.0557 80.3083 19.9647 80.3083 19.8737C80.3083 19.7523 80.3387 19.631 80.4298 19.54C80.5209 19.4489 80.612 19.4186 80.7638 19.4186C80.8245 19.4186 80.9156 19.4186 81.0067 19.4489V19.722C80.946 19.6917 80.8852 19.6917 80.8245 19.6917C80.6727 19.6917 80.612 19.7523 80.612 19.904C80.612 19.9647 80.612 19.9951 80.6727 20.0557C80.7031 20.1164 80.7638 20.1164 80.8549 20.1164H81.1889V20.2378L81.0674 20.3591H80.2173V20.1164L80.3994 20.1468Z" fill="#868686"/>
<path d="M82.8894 15.5957V18.8421L82.5858 19.0848H82.3125V15.5957H82.8894Z" fill="#868686"/>
<path d="M85.7434 16.8104V18.5094H85.9863V18.9949H85.7434C85.713 19.359 85.5612 19.6624 85.2879 19.8748C85.045 20.0265 84.7718 20.1175 84.4378 20.1175C84.4074 20.1175 84.3467 20.1175 84.2556 20.1175L84.0127 19.8444V19.632C84.1038 19.6624 84.1949 19.6624 84.3163 19.6624C84.8628 19.6624 85.1665 19.3893 85.1665 18.8432V16.8407L85.7434 16.8104ZM85.4397 15.7788C85.5308 15.7788 85.5915 15.8091 85.6523 15.8698C85.713 15.9305 85.7434 15.9912 85.7434 16.0822C85.7434 16.1732 85.713 16.2339 85.6523 16.2946C85.5915 16.3553 85.5308 16.3856 85.4397 16.3856C85.3486 16.3856 85.2879 16.3553 85.2272 16.2946C85.1665 16.2339 85.1361 16.1732 85.1361 16.0822C85.1361 15.9912 85.1665 15.9305 85.2272 15.8698C85.2879 15.8091 85.3486 15.7788 85.4397 15.7788Z" fill="#868686"/>
<path d="M88.1726 15.5352V16.0813L87.201 16.6881C87.5957 16.8398 87.9297 17.0825 88.1726 17.4163C88.3851 17.7197 88.5066 18.0534 88.5066 18.4175C88.5066 18.5995 88.4459 18.7209 88.3548 18.8423C88.2637 18.9333 88.1422 18.994 87.9904 18.994H85.9258V18.5085H87.8083C87.8994 18.5085 87.9297 18.4782 87.9297 18.3872C87.8993 18.0837 87.8083 17.841 87.5957 17.6286C87.3225 17.3252 86.9885 17.1432 86.533 17.1129C86.5027 17.1129 86.5027 17.1129 86.5027 17.0825V16.5364L88.1726 15.5352Z" fill="#868686"/>
<path d="M90.2073 16.8086V18.5077H90.4502V18.9931H90.177C90.1466 19.3572 89.9948 19.6606 89.7215 19.873C89.509 20.055 89.2054 20.1157 88.8714 20.1157C88.8106 20.1157 88.7499 20.1157 88.6892 20.1157L88.4463 19.8426V19.6302C88.5374 19.6606 88.6285 19.6606 88.7499 19.6606C89.2964 19.6606 89.6001 19.3875 89.6001 18.8414V16.8389L90.2073 16.8086Z" fill="#868686"/>
<path d="M91.2702 18.5088V18.9942H90.3896V18.5088H91.2702Z" fill="#868686"/>
<path d="M92.1198 18.5088V18.9942H91.2393V18.5088H92.1198Z" fill="#868686"/>
<path d="M92.9401 18.5088V18.9942H92.0596V18.5088H92.9401Z" fill="#868686"/>
<path d="M93.7897 18.5088V18.9942H92.9092V18.5088H93.7897Z" fill="#868686"/>
<path d="M94.6089 18.5082C94.5482 18.3262 94.4875 18.1138 94.4875 17.9014C94.4875 17.5373 94.6089 17.2339 94.8215 17.0519C95.0037 16.8698 95.2466 16.7788 95.5502 16.7788C95.8235 16.7788 96.036 16.8395 96.2182 16.9609C96.4307 17.1126 96.5218 17.3553 96.5218 17.6283V18.3868C96.5218 18.4172 96.5218 18.4475 96.5521 18.4779C96.5825 18.5082 96.6129 18.5082 96.6432 18.5082H96.6736V18.9937H96.4611C96.3093 18.9937 96.1878 18.933 96.0967 18.842C95.9449 19.024 95.7324 19.1454 95.4895 19.1454C95.2162 19.1454 94.9733 19.0543 94.7911 18.842L94.6697 18.9937H93.7588V18.5082H94.6089ZM95.9449 17.6283C95.9449 17.507 95.9145 17.416 95.8234 17.3553C95.7627 17.2946 95.6716 17.2339 95.5502 17.2339C95.3984 17.2339 95.2769 17.2946 95.1858 17.416C95.0947 17.5373 95.034 17.689 95.034 17.9014C95.034 18.1138 95.0947 18.2958 95.1858 18.4475C95.2769 18.5992 95.3984 18.6599 95.5502 18.6599C95.6716 18.6599 95.8234 18.5992 95.9449 18.4779V17.6283Z" fill="#868686"/>
<path d="M98.0706 15.5957V18.4477C98.0706 18.5691 98.0402 18.6904 97.9492 18.7814C97.8581 18.9028 97.7366 18.9635 97.5544 18.9635H96.6436V18.5084H97.3723C97.4026 18.5084 97.433 18.5084 97.4633 18.478C97.4937 18.4477 97.4937 18.4174 97.4937 18.387V15.626L98.0706 15.5957Z" fill="#868686"/>
<path d="M99.2849 15.5957V18.8421L98.9813 19.0848H98.708V15.5957H99.2849Z" fill="#868686"/>
<path d="M11.2038 24.4244V25.6077H10.627V22.8164H12.5702V23.3019H11.2038V23.939H12.4183V24.4244H11.2038Z" fill="#868686"/>
<path d="M13.5416 24.4244V25.1525H15.0598V25.638H12.9951V22.8467H14.999V23.3321H13.572V23.9693H14.8776V24.4547L13.5416 24.4244Z" fill="#868686"/>
<path d="M15.5156 25.638V22.8467H16.6087C17.0034 22.8467 17.307 22.9377 17.4892 23.1804C17.7017 23.4535 17.8232 23.8176 17.8232 24.2423C17.8232 24.6671 17.7017 25.0312 17.4892 25.3042C17.307 25.5166 17.0034 25.638 16.6087 25.638H15.5156ZM16.0622 25.1525H16.5783C17.0034 25.1525 17.2159 24.8491 17.2159 24.2423C17.2159 23.6355 17.0034 23.3321 16.5783 23.3321H16.0622V25.1525Z" fill="#868686"/>
<path d="M18.8248 24.4244V25.1525H20.343V25.638H18.2783V22.8467H20.2823V23.3321H18.8248V23.9693H20.1608V24.4547L18.8248 24.4244Z" fill="#868686"/>
<path d="M21.3445 24.5155V25.6077H20.7676V22.8164H22.2553C22.4982 22.8164 22.6804 22.8771 22.8019 22.9985C22.9537 23.1502 23.0144 23.3322 23.0144 23.5446C23.0144 23.8783 22.8626 24.121 22.5286 24.2424C22.7108 24.3031 22.8019 24.3941 22.8626 24.5155C22.893 24.5761 22.9233 24.8492 22.9233 25.274C22.9233 25.365 22.9537 25.456 23.0448 25.4864V25.5774H22.4375C22.3768 25.4864 22.3464 25.3043 22.3464 25.0919C22.3464 25.0313 22.3464 24.9706 22.3464 24.9099V24.7885C22.3464 24.5761 22.225 24.4548 21.9821 24.4548L21.3445 24.5155ZM21.3445 24.0604H22.0428C22.1946 24.0604 22.2857 24.03 22.3464 23.9997C22.4072 23.939 22.4375 23.848 22.4375 23.6963C22.4375 23.5446 22.4072 23.4536 22.3464 23.4232C22.2857 23.3625 22.1946 23.3625 22.0428 23.3625H21.3445V24.0604Z" fill="#868686"/>
<path d="M25.14 25.0616H24.1077L23.9255 25.6077H23.3486L24.3202 22.8164H24.9578L25.9295 25.6077H25.3526L25.14 25.0616ZM24.9882 24.5761L24.6239 23.4839L24.2595 24.5761H24.9882Z" fill="#868686"/>
<path d="M26.8406 22.8467V25.1525H28.1765V25.638H26.2637V22.8467H26.8406Z" fill="#868686"/>
<path d="M31.6374 24.1216V25.6386H31.3034L31.2427 25.2442C31.0301 25.5476 30.7569 25.669 30.3925 25.669C29.9978 25.669 29.6638 25.5173 29.4209 25.2139C29.2084 24.9408 29.0869 24.6374 29.0869 24.243C29.0869 23.7879 29.2387 23.4238 29.512 23.1507C29.7549 22.908 30.0585 22.7866 30.4532 22.7866C30.8479 22.7866 31.0908 22.8776 31.3337 23.0597C31.5159 23.2114 31.6374 23.4238 31.6677 23.6968H31.1212C31.0301 23.4238 30.7872 23.2721 30.4532 23.2721C30.2103 23.2721 29.9978 23.3631 29.846 23.5451C29.7245 23.6968 29.6638 23.9396 29.6638 24.2126C29.6638 24.516 29.7549 24.7587 29.9067 24.9408C30.0585 25.0925 30.2407 25.1835 30.4532 25.1835C30.6961 25.1835 30.8783 25.0925 31.0301 24.9408C31.0908 24.8498 31.1516 24.7284 31.1516 24.607H30.514V24.1216C30.5443 24.1216 31.6374 24.1216 31.6374 24.1216Z" fill="#868686"/>
<path d="M32.7605 24.4244V25.1525H34.2786V25.638H32.1836V22.8467H34.1875V23.3321H32.7605V23.9693H34.0964V24.4547L32.7605 24.4244Z" fill="#868686"/>
<path d="M35.919 22.8164C36.3137 22.8164 36.6173 22.9378 36.8602 23.1805C37.1031 23.4536 37.2549 23.8176 37.2549 24.2424C37.2549 24.6672 37.1335 25.0313 36.8602 25.3043C36.6173 25.547 36.3137 25.6684 35.919 25.6684C35.5242 25.6684 35.1903 25.547 34.9777 25.3043C34.7348 25.0313 34.583 24.6672 34.583 24.2424C34.583 23.8176 34.7045 23.4536 34.9777 23.1805C35.2206 22.9378 35.5242 22.8164 35.919 22.8164ZM35.919 23.3019C35.6761 23.3019 35.4635 23.3929 35.3421 23.6053C35.2206 23.7873 35.1599 23.9997 35.1599 24.2727C35.1599 24.5761 35.251 24.8189 35.4028 25.0009C35.5242 25.1526 35.7064 25.2133 35.9493 25.2133C36.1922 25.2133 36.4048 25.1223 36.5262 24.9099C36.6477 24.7279 36.7084 24.5155 36.7084 24.2424C36.7084 23.939 36.6173 23.6963 36.4655 23.5142C36.3137 23.3625 36.1619 23.3019 35.919 23.3019Z" fill="#868686"/>
<path d="M40.1384 24.1216V25.6386H39.7741L39.7134 25.2442C39.5008 25.5476 39.2276 25.669 38.8632 25.669C38.4381 25.669 38.1345 25.5173 37.8916 25.2139C37.6791 24.9408 37.5576 24.6374 37.5576 24.243C37.5576 23.7879 37.7094 23.4238 37.9827 23.1507C38.2256 22.908 38.5292 22.7866 38.9239 22.7866C39.3186 22.7866 39.5615 22.8776 39.8044 23.0597C39.9866 23.2114 40.1081 23.4238 40.1384 23.6968H39.5919C39.4705 23.4238 39.2579 23.2721 38.9239 23.2721C38.6507 23.2721 38.4685 23.3631 38.3167 23.5451C38.1952 23.6968 38.1345 23.9396 38.1345 24.2126C38.1345 24.516 38.2256 24.7587 38.3774 24.9408C38.5292 25.0925 38.7114 25.1835 38.9239 25.1835C39.1668 25.1835 39.349 25.0925 39.5008 24.9408C39.5615 24.8498 39.6223 24.7284 39.6223 24.607H38.9847V24.1216H40.1384Z" fill="#868686"/>
<path d="M41.2321 24.5155V25.6077H40.6855V22.8164H42.1733C42.4162 22.8164 42.5984 22.8771 42.7198 22.9985C42.8717 23.1502 42.9324 23.3322 42.9324 23.5446C42.9324 23.8783 42.7806 24.121 42.4466 24.2424C42.6288 24.3031 42.7198 24.3941 42.7806 24.5155C42.8109 24.5761 42.8413 24.8492 42.8413 25.274C42.8413 25.365 42.8717 25.456 42.9627 25.4864V25.5774H42.3555C42.2948 25.4864 42.2644 25.3043 42.2644 25.0919C42.2644 25.0313 42.2644 24.9706 42.2644 24.9099V24.7885C42.2644 24.5761 42.1429 24.4548 41.9 24.4548L41.2321 24.5155ZM41.2321 24.0604H41.9304C42.0822 24.0604 42.1733 24.03 42.234 23.9997C42.2948 23.939 42.3251 23.848 42.3251 23.6963C42.3251 23.5446 42.2948 23.4536 42.234 23.4232C42.1733 23.3625 42.0822 23.3625 41.9304 23.3625H41.2321V24.0604Z" fill="#868686"/>
<path d="M45.0277 25.0616H43.9954L43.8132 25.6077H43.2363L44.2079 22.8164H44.8455L45.8171 25.6077H45.2403L45.0277 25.0616ZM44.8759 24.5761L44.5116 23.4839L44.1472 24.5761H44.8759Z" fill="#868686"/>
<path d="M46.7283 24.6368V25.638H46.1514V22.8467H47.3659C47.6695 22.8467 47.9124 22.9377 48.0642 23.0894C48.1857 23.2411 48.2767 23.4535 48.2767 23.6962C48.2767 23.9996 48.1857 24.2423 48.0338 24.394C47.882 24.5457 47.6999 24.6064 47.457 24.6064L46.7283 24.6368ZM46.7283 24.1513H47.2748C47.5784 24.1513 47.7302 23.9996 47.7302 23.7265C47.7302 23.4535 47.5784 23.3018 47.2748 23.3018H46.7283V24.1513Z" fill="#868686"/>
<path d="M50.3711 24.3637H49.2781V25.638H48.7012V22.8467H49.2781V23.8783H50.3711V22.8467H50.948V25.638H50.3711V24.3637Z" fill="#868686"/>
<path d="M52.1023 22.8467V25.638H51.5254V22.8467H52.1023Z" fill="#868686"/>
<path d="M54.9555 23.7873H54.4089C54.3482 23.4536 54.1357 23.3019 53.832 23.3019C53.5891 23.3019 53.407 23.3929 53.2855 23.5749C53.1641 23.757 53.1033 23.9693 53.1033 24.2424C53.1033 24.5458 53.1641 24.7885 53.3159 24.9706C53.4373 25.1223 53.5891 25.183 53.8017 25.183C53.9839 25.183 54.1357 25.1223 54.2268 25.0313C54.3179 24.9402 54.4089 24.7885 54.4089 24.6368H54.9555C54.9251 24.9706 54.8036 25.2436 54.5607 25.4257C54.3482 25.5774 54.075 25.6684 53.7713 25.6684C53.3462 25.6684 53.0426 25.5167 52.7997 25.2436C52.6175 25.0009 52.4961 24.6672 52.4961 24.2424C52.4961 23.757 52.6175 23.3929 52.8908 23.1502C53.1033 22.9074 53.407 22.8164 53.7713 22.8164C54.1964 22.8164 54.5304 22.9681 54.7429 23.2412C54.8947 23.3929 54.9555 23.5749 54.9555 23.7873Z" fill="#868686"/>
<path d="M56.6872 22.8467V25.638H56.1104V22.8467H56.6872Z" fill="#868686"/>
<path d="M58.964 25.638L57.8406 23.7265V25.638H57.2637V22.8467H57.8406L58.9336 24.7278V22.8467H59.5105V25.638H58.964Z" fill="#868686"/>
<path d="M60.6638 24.4244V25.6077H60.0869V22.8164H62.0301V23.3019H60.6334V23.939H61.8479V24.4244H60.6638Z" fill="#868686"/>
<path d="M63.6397 22.8164C64.0344 22.8164 64.338 22.9378 64.5809 23.1805C64.8542 23.4536 64.9756 23.8176 64.9756 24.2424C64.9756 24.6672 64.8542 25.0313 64.5809 25.3043C64.338 25.547 64.0344 25.6684 63.6397 25.6684C63.245 25.6684 62.911 25.547 62.6984 25.3043C62.4252 25.0313 62.3037 24.6672 62.3037 24.2424C62.3037 23.8176 62.4252 23.4536 62.6984 23.1805C62.911 22.9378 63.245 22.8164 63.6397 22.8164ZM63.6397 23.3019C63.3968 23.3019 63.1842 23.3929 63.0628 23.6053C62.9413 23.7873 62.8806 23.9997 62.8806 24.2727C62.8806 24.5761 62.9717 24.8189 63.1235 25.0009C63.2449 25.1526 63.4271 25.2133 63.67 25.2133C63.9129 25.2133 64.1255 25.1223 64.2469 24.9099C64.3684 24.7279 64.4291 24.5155 64.4291 24.2424C64.4291 23.939 64.338 23.6963 64.1862 23.5142C64.0344 23.3625 63.8522 23.3019 63.6397 23.3019Z" fill="#868686"/>
<path d="M65.9773 24.5155V25.6077H65.4004V22.8164H66.8882C67.1311 22.8164 67.3132 22.8771 67.4347 22.9985C67.5865 23.1502 67.6472 23.3322 67.6472 23.5446C67.6472 23.8783 67.4954 24.121 67.1614 24.2424C67.3436 24.3031 67.4347 24.3941 67.4954 24.5155C67.5258 24.5761 67.5561 24.8492 67.5561 25.274C67.5561 25.365 67.5865 25.456 67.6776 25.4864V25.5774H67.0703C67.0096 25.4864 66.9792 25.3043 66.9792 25.0919C66.9792 25.0313 66.9792 24.9706 66.9792 24.9099V24.7885C66.9792 24.5761 66.8578 24.4548 66.6149 24.4548L65.9773 24.5155ZM65.9773 24.0604H66.6756C66.8274 24.0604 66.9185 24.03 66.9792 23.9997C67.04 23.939 67.0703 23.848 67.0703 23.6963C67.0703 23.5446 67.04 23.4536 66.9792 23.4232C66.9185 23.3625 66.8274 23.3625 66.6756 23.3625H65.9773V24.0604Z" fill="#868686"/>
<path d="M68.7097 23.4536V25.6077H68.1328V22.8164H68.983L69.4991 25.0313L69.9849 22.8164H70.8351V25.6077H70.2582V23.4536L69.7724 25.6077H69.2259L68.7097 23.4536Z" fill="#868686"/>
<path d="M73.0521 25.0616H72.0198L71.8376 25.6077H71.2607L72.2323 22.8164H72.87L73.8416 25.6077H73.2647L73.0521 25.0616ZM72.9003 24.5761L72.536 23.4839L72.1716 24.5761H72.9003Z" fill="#868686"/>
<path d="M75.3597 23.3321V25.638H74.7828V23.3321H73.9326V22.8467H76.1491V23.3321H75.3597Z" fill="#868686"/>
<path d="M77.0906 22.8467V25.638H76.5137V22.8467H77.0906Z" fill="#868686"/>
<path d="M78.8818 22.8164C79.2766 22.8164 79.5802 22.9378 79.8231 23.1805C80.0964 23.4536 80.2178 23.8176 80.2178 24.2424C80.2178 24.6672 80.0964 25.0313 79.8231 25.3043C79.5802 25.547 79.2766 25.6684 78.8818 25.6684C78.4871 25.6684 78.1532 25.547 77.9406 25.3043C77.6674 25.0313 77.5459 24.6672 77.5459 24.2424C77.5459 23.8176 77.6674 23.4536 77.9406 23.1805C78.1532 22.9378 78.4871 22.8164 78.8818 22.8164ZM78.8818 23.3019C78.6389 23.3019 78.4264 23.3929 78.305 23.6053C78.1835 23.7873 78.1228 23.9997 78.1228 24.2727C78.1228 24.5761 78.2139 24.8189 78.3657 25.0009C78.5175 25.1526 78.6693 25.2133 78.9122 25.2133C79.1551 25.2133 79.3677 25.1223 79.4891 24.9099C79.6106 24.7279 79.6713 24.5155 79.6713 24.2424C79.6713 23.939 79.5802 23.6963 79.4284 23.5142C79.2462 23.3625 79.0944 23.3019 78.8818 23.3019Z" fill="#868686"/>
<path d="M82.3429 25.638L81.2195 23.7265V25.638H80.6426V22.8467H81.2195L82.3125 24.7278V22.8467H82.8894V25.638H82.3429Z" fill="#868686"/>
<path d="M86.5023 23.7873H85.9558C85.8951 23.4536 85.6826 23.3019 85.3486 23.3019C85.1057 23.3019 84.9235 23.3929 84.802 23.5749C84.6806 23.757 84.6502 23.9693 84.6502 24.2424C84.6502 24.5458 84.7109 24.7885 84.8628 24.9706C84.9842 25.1223 85.136 25.183 85.3486 25.183C85.5307 25.183 85.6826 25.1223 85.7736 25.0313C85.8647 24.9402 85.9255 24.7885 85.9558 24.6368H86.5023C86.472 24.9706 86.3505 25.2436 86.1076 25.4257C85.8951 25.5774 85.6522 25.6684 85.3182 25.6684C84.8931 25.6684 84.5895 25.5167 84.3466 25.2436C84.1644 25.0009 84.043 24.6672 84.043 24.2424C84.043 23.757 84.1644 23.3929 84.4377 23.1502C84.6502 22.9074 84.9538 22.8164 85.3182 22.8164C85.7433 22.8164 86.0773 22.9681 86.2898 23.2412C86.4113 23.3929 86.472 23.5749 86.5023 23.7873Z" fill="#868686"/>
<path d="M87.5045 24.4244V25.1525H89.0227V25.638H86.958V22.8467H88.9619V23.3321H87.5349V23.9693H88.8709V24.4547L87.5045 24.4244Z" fill="#868686"/>
<path d="M91.1485 25.638L90.0251 23.7265V25.638H89.4482V22.8467H90.0251L91.1182 24.7278V22.8467H91.6951V25.638H91.1485Z" fill="#868686"/>
<path d="M93.4866 23.3321V25.638H92.9097V23.3321H92.0596V22.8467H94.276V23.3321H93.4866Z" fill="#868686"/>
<path d="M95.2165 24.4244V25.1525H96.7346V25.638H94.6699V22.8467H96.6739V23.3321H95.2468V23.9693H96.5828V24.4547L95.2165 24.4244Z" fill="#868686"/>
<path d="M97.737 24.5155V25.6077H97.1602V22.8164H98.6479C98.8908 22.8164 99.073 22.8771 99.1945 22.9985C99.3463 23.1502 99.407 23.3322 99.407 23.5446C99.407 23.8783 99.2552 24.121 98.9212 24.2424C99.1034 24.3031 99.2248 24.3941 99.2552 24.5155C99.2855 24.5761 99.3159 24.8492 99.3159 25.274C99.3159 25.365 99.3463 25.456 99.4373 25.4864V25.5774H98.8301C98.7694 25.4864 98.739 25.3043 98.739 25.0919C98.739 25.0313 98.739 24.9706 98.739 24.9099V24.7885C98.739 24.5761 98.6176 24.4548 98.3747 24.4548L97.737 24.5155ZM97.737 24.0604H98.4354C98.5872 24.0604 98.6783 24.03 98.739 23.9997C98.7997 23.939 98.8301 23.848 98.8301 23.6963C98.8301 23.5446 98.7997 23.4536 98.739 23.4232C98.6783 23.3625 98.5872 23.3625 98.4354 23.3625H97.737V24.0604Z" fill="#868686"/>
</g>
<defs>
<clipPath id="clip0_1_357">
<rect width="99.9232" height="40.4134" fill="white"/>
</clipPath>
</defs>
</svg>
