<svg width="17" height="17" viewBox="0 0 17 17" fill="none" xmlns="http://www.w3.org/2000/svg">
<path d="M5.94699 11.3197C5.94699 11.5232 5.86614 11.7184 5.72221 11.8624C5.57829 12.0063 5.38309 12.0871 5.17955 12.0871C4.97601 12.0871 4.78081 12.0063 4.63689 11.8624C4.49296 11.7184 4.41211 11.5232 4.41211 11.3197C4.41211 11.1161 4.49296 10.9209 4.63689 10.777C4.78081 10.6331 4.97601 10.5522 5.17955 10.5522C5.38309 10.5522 5.57829 10.6331 5.72221 10.777C5.86614 10.9209 5.94699 11.1161 5.94699 11.3197ZM9.01676 11.3197C9.01676 11.5232 8.9359 11.7184 8.79198 11.8624C8.64806 12.0063 8.45286 12.0871 8.24932 12.0871C8.04578 12.0871 7.85058 12.0063 7.70666 11.8624C7.56273 11.7184 7.48188 11.5232 7.48188 11.3197C7.48188 11.1161 7.56273 10.9209 7.70666 10.777C7.85058 10.6331 8.04578 10.5522 8.24932 10.5522C8.45286 10.5522 8.64806 10.6331 8.79198 10.777C8.9359 10.9209 9.01676 11.1161 9.01676 11.3197ZM11.3191 12.0871C11.5226 12.0871 11.7178 12.0063 11.8618 11.8624C12.0057 11.7184 12.0865 11.5232 12.0865 11.3197C12.0865 11.1161 12.0057 10.9209 11.8618 10.777C11.7178 10.6331 11.5226 10.5522 11.3191 10.5522C11.1155 10.5522 10.9203 10.6331 10.7764 10.777C10.6325 10.9209 10.5516 11.1161 10.5516 11.3197C10.5516 11.5232 10.6325 11.7184 10.7764 11.8624C10.9203 12.0063 11.1155 12.0871 11.3191 12.0871Z" fill="#263238" fill-opacity="0.6"/>
<path fill-rule="evenodd" clip-rule="evenodd" d="M3.06977 5.18023V6.18021C2.89556 6.19249 2.73209 6.20784 2.57707 6.22933C1.88637 6.32142 1.30465 6.52095 0.842651 6.98219C0.380651 7.44419 0.182651 8.02591 0.0897907 8.7166C-1.14358e-08 9.38198 0 10.2285 0 11.2776V11.362C0 12.4111 -1.14358e-08 13.2576 0.0897907 13.9229C0.181884 14.6136 0.381419 15.1953 0.842651 15.6573C1.30465 16.1193 1.88637 16.3174 2.57707 16.411C3.24244 16.5 4.08893 16.5 5.13802 16.5H11.362C12.4111 16.5 13.2576 16.5 13.9229 16.411C14.6136 16.3174 15.1953 16.1193 15.6573 15.6573C16.1193 15.1953 16.3174 14.6136 16.411 13.9229C16.5 13.2576 16.5 12.4111 16.5 11.362V11.2776C16.5 10.2285 16.5 9.38198 16.411 8.7166C16.3174 8.02591 16.1193 7.44419 15.6573 6.98219C15.1953 6.52019 14.6136 6.32219 13.9229 6.22933C13.7593 6.20777 13.5949 6.19139 13.4302 6.18021V5.18023C13.4302 3.80635 12.8845 2.48874 11.913 1.51726C10.9415 0.545773 9.62388 0 8.25 0C6.87612 0 5.5585 0.545773 4.58702 1.51726C3.61554 2.48874 3.06977 3.80635 3.06977 5.18023ZM8.25 1.15116C7.18142 1.15116 6.15661 1.57565 5.40102 2.33125C4.64542 3.08685 4.22093 4.11166 4.22093 5.18023V6.14184C4.50719 6.13953 4.8134 6.13953 5.13802 6.13953H11.362C11.6866 6.13953 11.9928 6.13953 12.2791 6.14184V5.18023C12.2791 2.95465 10.4756 1.15116 8.25 1.15116ZM2.73056 7.36974C2.16726 7.44572 1.86949 7.58463 1.65691 7.79644C1.44433 8.00902 1.30619 8.30679 1.23021 8.87086C1.1527 9.45028 1.15116 10.2185 1.15116 11.3198C1.15116 12.421 1.1527 13.1893 1.23021 13.7694C1.30619 14.3327 1.44509 14.6305 1.65691 14.8431C1.86949 15.0557 2.16726 15.1938 2.73133 15.2698C3.30998 15.3473 4.07895 15.3488 5.18023 15.3488H11.3198C12.421 15.3488 13.1893 15.3473 13.7694 15.2698C14.3327 15.1938 14.6305 15.0549 14.8431 14.8431C15.0557 14.6305 15.1938 14.3327 15.2698 13.7687C15.3473 13.1893 15.3488 12.421 15.3488 11.3198C15.3488 10.2185 15.3473 9.44951 15.2698 8.87009C15.1938 8.30679 15.0549 8.00902 14.8431 7.79644C14.6305 7.58386 14.3327 7.44572 13.7687 7.36974C13.1893 7.29223 12.421 7.2907 11.3198 7.2907H5.18023C4.07895 7.2907 3.30998 7.29223 2.73056 7.36974Z" fill="#263238" fill-opacity="0.6"/>
</svg>
